<svg width="112" height="113" viewBox="0 0 112 113" fill="none" xmlns="http://www.w3.org/2000/svg">
<path d="M21.2996 44.334C20.8996 43.934 20.4996 43.834 20.3996 44.134C20.3996 44.134 19.6996 43.934 18.5996 43.634C17.6996 43.434 16.8996 42.834 16.3996 42.734C15.8996 42.934 15.9996 42.634 15.9996 42.334C16.2996 42.134 16.4996 42.134 16.9996 42.334C17.7996 42.834 19.0996 42.634 19.4996 42.234C19.8996 41.734 20.1996 41.434 20.1996 41.134C20.2996 40.834 20.1996 40.634 19.7996 40.534C19.3996 40.334 18.8996 40.234 18.9996 39.934C19.1996 39.434 18.4996 38.834 18.3996 39.034C18.3996 39.634 18.5996 40.334 18.5996 40.334C18.7996 40.434 18.9996 40.534 18.8996 40.734C18.9996 41.034 18.7996 41.034 17.6996 40.634C16.7996 40.334 16.1996 40.134 16.0996 40.434C15.9996 40.734 16.0996 40.434 15.9996 40.034C15.9996 39.334 15.0996 39.034 14.8996 39.634C14.6996 40.234 14.4996 40.134 14.4996 39.534C14.2996 39.434 14.2996 39.434 14.0996 39.434C13.6996 39.934 12.0996 39.534 12.3996 39.234L12.6996 38.234C12.9996 38.034 12.9996 38.034 12.8996 38.334C12.6996 38.934 12.8996 39.034 13.2996 38.434C13.5996 38.234 13.8996 38.234 13.6996 38.534C13.7996 38.934 13.7996 38.934 13.9996 39.034C14.0996 38.734 14.1996 38.434 14.2996 38.134C14.1996 37.734 14.1996 37.734 14.5996 37.534C14.7996 37.634 14.9996 37.734 14.7996 38.334C14.8996 38.734 14.7996 39.034 16.1996 39.134C16.8996 39.334 17.2996 39.534 17.3996 39.234C17.3996 39.234 17.4996 38.934 17.6996 39.034C17.6996 39.034 17.6996 39.034 17.7996 38.734C17.8996 38.434 17.9996 38.134 18.1996 38.234C18.3996 38.334 18.4996 38.034 18.6996 37.734C18.6996 37.734 18.4996 37.634 18.2996 37.534C17.6996 37.634 17.7996 37.034 18.2996 36.934C18.3996 36.634 18.3996 36.634 18.5996 36.434C18.5996 36.434 17.8996 36.834 17.5996 36.934C16.8996 37.334 16.5996 37.534 16.4996 37.134C16.4996 36.434 17.1996 35.734 17.4996 36.234C17.6996 36.334 17.8996 36.434 18.0996 36.134C18.3996 35.534 18.6996 35.434 18.6996 35.434C18.8996 35.534 18.8996 35.534 19.1996 35.034C19.2996 34.434 18.6996 34.034 18.2996 34.234C18.1996 34.534 17.3996 34.434 16.9996 34.234C16.1996 33.834 15.9996 34.134 15.8996 34.434C15.7996 34.734 15.3996 34.934 15.1996 34.834C14.7996 34.634 14.7996 34.634 15.0996 35.134C15.1996 35.934 15.1996 35.934 14.6996 35.334C14.0996 35.034 13.7996 34.934 13.5996 35.634C13.4996 35.934 12.9996 36.534 12.7996 36.434C12.5996 36.334 11.9996 36.534 11.3996 36.634C10.4996 37.034 10.0996 37.334 9.29963 36.334C9.09963 36.234 9.09962 36.234 8.99962 36.634C8.89962 36.934 8.89962 36.934 8.89962 36.934C8.69962 36.834 8.59962 37.234 8.39962 37.534C8.09962 38.234 8.09962 38.234 8.09962 38.234C7.89962 38.134 7.49962 38.434 7.39962 38.834C7.39962 38.834 7.49962 39.234 8.09962 39.034C8.29961 39.134 8.29962 39.134 7.99962 39.434C7.39962 40.234 6.39962 39.634 6.39962 38.434C6.39962 38.334 6.39962 38.334 6.39962 38.234C6.39962 38.034 6.49962 37.734 6.59962 37.534C6.99962 37.234 6.89962 36.834 6.69962 37.134C6.69962 37.134 6.49962 37.034 6.49962 36.234C6.39962 35.834 6.29962 35.334 6.09962 35.334C5.89962 35.234 5.69963 35.634 5.79963 36.034C5.99963 36.934 5.59962 37.234 4.99962 37.034C4.89962 37.034 4.69962 37.034 4.49962 37.134C4.29962 37.234 4.19962 37.234 4.19962 37.234C4.09962 37.634 3.39962 37.434 2.69962 37.234C1.99962 37.034 1.49962 36.534 0.999625 36.334C0.299625 36.134 0.399622 35.734 1.19962 35.034C1.89962 34.334 2.39963 34.534 2.29963 35.334C2.29963 35.334 2.69963 35.034 2.79963 34.634C3.09963 34.234 3.39962 33.934 3.59962 33.734C3.89962 33.534 4.09962 33.334 4.19962 33.434C4.39962 33.534 4.79962 33.234 4.99962 32.834C5.49962 32.134 5.69962 31.834 6.39962 32.534C6.79962 32.734 7.09962 32.734 7.09962 32.734C7.19962 32.334 7.39962 32.034 7.19962 31.934C7.19962 31.934 7.19962 31.934 7.39962 32.034C7.99962 31.834 8.59963 32.134 8.29963 32.834C8.29963 32.834 8.49962 32.934 8.69962 33.034C9.09962 32.734 9.09962 32.734 9.09962 32.734C8.79961 32.234 9.99962 31.434 10.3996 31.634C10.3996 31.634 10.5996 31.734 10.7996 31.434C11.1996 31.234 11.1996 31.234 11.5996 30.934C12.1996 30.434 11.2996 29.534 10.2996 29.034C10.0996 28.934 9.29963 28.934 9.29963 28.934C9.09963 28.834 9.09962 28.834 8.89962 29.134C8.89962 29.134 9.29962 29.334 9.49962 29.434C10.2996 29.434 10.2996 29.434 9.49962 29.834C8.89962 29.934 8.69962 30.334 8.99962 30.834C9.09962 31.734 9.09962 31.734 8.39962 31.434C7.49962 31.034 7.49963 31.034 8.29963 30.534C8.49963 30.134 8.49962 30.134 7.99962 29.534C7.39962 29.234 6.89963 29.034 6.79963 29.434C6.79963 29.434 6.79963 29.434 6.79963 28.934C6.59963 28.834 6.59962 28.434 6.59962 28.434C6.39962 28.834 6.39962 28.334 6.39962 27.834C6.39962 26.934 6.39962 26.934 6.59962 27.434C7.49962 28.734 7.69962 28.834 8.69962 27.934C9.29962 27.334 9.69962 27.134 10.0996 27.734C10.2996 27.834 10.6996 28.034 11.0996 27.834C11.2996 27.534 11.4996 27.634 11.6996 28.634C11.6996 29.034 11.9996 29.634 12.0996 29.234C12.1996 29.334 12.1996 29.234 12.2996 29.134C12.2996 29.034 12.2996 28.934 12.2996 28.934C12.0996 28.834 12.0996 28.834 12.6996 28.334C13.0996 27.734 13.2996 27.434 12.8996 27.634C12.6996 27.534 12.4996 27.434 12.6996 27.134C12.6996 27.134 12.2996 26.934 12.0996 26.834C11.8996 26.734 11.6996 26.634 12.0996 25.934C12.1996 25.834 12.2996 25.734 12.2996 25.634C11.8996 25.834 11.6996 26.134 11.4996 25.634C11.0996 25.434 10.8996 25.234 10.6996 25.634C10.4996 25.934 10.4996 26.434 10.6996 26.534C10.6996 26.534 10.6996 26.534 10.4996 26.434C10.0996 26.634 9.89962 26.534 9.89962 26.134C9.89962 25.734 9.89962 25.234 9.49962 25.034C9.29962 24.934 9.29963 24.434 9.29963 24.434C9.49963 24.134 9.79961 23.734 9.59962 23.634C9.59962 23.634 9.59963 23.634 9.79963 23.334C9.79963 23.334 10.1996 23.534 10.3996 23.734C10.5996 23.834 10.9996 24.134 10.9996 23.634L11.1996 23.334C11.1996 23.334 11.1996 22.834 11.2996 22.434C11.3996 21.534 11.3996 21.534 10.8996 22.134C10.4996 22.334 10.4996 22.334 10.2996 22.234C10.0996 22.134 10.0996 22.134 10.2996 21.734C10.4996 21.434 10.7996 21.034 10.8996 20.634C11.1996 20.334 11.3996 19.934 11.5996 20.134C11.7996 20.234 11.4996 20.634 11.4996 21.034C11.1996 21.334 12.3996 22.534 12.8996 21.934C13.0996 21.634 13.5996 21.434 13.5996 21.434C13.7996 21.534 13.7996 21.534 13.9996 21.234C14.2996 20.934 14.9996 20.434 15.0996 20.634C15.3996 20.334 15.1996 20.234 14.7996 19.934C13.8996 19.234 13.8996 17.734 14.9996 16.934C15.4996 16.734 15.5996 16.334 15.3996 16.134C15.1996 16.034 14.9996 15.834 15.2996 15.534C15.2996 15.534 15.3996 15.534 15.5996 15.434C15.6996 15.434 15.8996 15.434 15.9996 15.534C16.2996 15.834 16.0996 16.134 15.7996 16.434C15.4996 16.734 15.6996 16.834 16.0996 17.134C16.2996 17.234 16.2996 17.234 16.5996 17.034C16.5996 17.034 16.3996 16.834 16.1996 16.734C16.4996 16.434 16.7996 16.134 16.5996 16.034C16.6996 15.634 18.6996 15.234 18.9996 16.034C19.0996 16.434 19.5996 16.434 19.9996 16.234C20.4996 16.034 20.8996 15.634 20.8996 15.134C20.8996 15.134 20.5996 14.834 20.3996 14.634C20.1996 14.434 20.3996 14.034 20.6996 13.734C20.6996 13.734 20.7996 13.334 20.4996 12.934C20.1996 12.634 20.4996 12.334 21.5996 12.334C22.4996 12.134 22.4996 12.734 21.7996 13.134C20.9996 13.434 21.2996 13.834 22.2996 13.634C22.5996 13.434 23.1996 13.534 23.3996 13.634C23.8996 14.134 23.7996 14.134 24.2996 12.934C24.5996 12.134 24.5996 12.134 24.1996 12.134C23.5996 12.634 23.3996 12.434 23.8996 11.734C24.0996 11.334 23.8996 11.134 23.5996 11.334C23.2996 11.534 23.0996 11.434 22.9996 11.234C22.9996 11.234 22.9996 11.234 23.2996 11.034C24.0996 10.734 23.5996 10.834 23.0996 10.834C22.0996 10.934 21.9996 10.834 21.6996 10.434L21.5996 9.63398H22.6996C23.1996 9.53398 23.4996 9.93398 23.4996 9.93398C23.5996 10.134 23.7996 10.334 24.4996 9.83398C24.7996 9.63398 25.2996 9.53398 25.2996 10.134C25.5996 10.534 25.5996 11.134 25.6996 11.234C25.4996 11.634 25.7996 11.434 25.9996 11.034C26.1996 10.634 26.1996 10.034 25.9996 9.63398C25.6996 9.23398 25.5996 9.03398 25.6996 9.23398C26.2996 9.33398 26.2996 9.33398 26.3996 8.83398C26.2996 8.63398 26.0996 8.43398 25.5996 8.53399C25.0996 8.53399 25.2996 8.13398 25.6996 7.93398C25.9996 7.73398 26.3996 7.43398 26.2996 7.33398C25.9996 6.93398 26.4996 6.93398 26.7996 7.33398C26.8996 7.53398 27.1996 7.93398 27.2996 8.13398C28.0996 8.53398 28.3996 8.33398 28.3996 7.53398C28.0996 7.13398 28.0996 7.13398 29.0996 7.13398C30.0996 7.13398 30.0996 7.13398 29.5996 6.33398C29.2996 5.93398 29.1996 5.73398 29.9996 5.33398C31.0996 4.73398 33.5996 4.03398 33.7996 4.53398C33.8996 4.73398 33.9996 4.93398 34.3996 4.73398C34.7996 4.53398 35.2996 4.63398 35.3996 4.83398C35.6996 5.43398 35.8996 4.93398 35.7996 3.93398C35.6996 2.73398 36.1996 2.73398 37.0996 3.93398C37.1996 4.23398 37.2996 4.43398 37.3996 4.53398C37.2996 4.33398 37.5996 3.93398 37.5996 3.93398L38.6996 3.53398C38.9996 3.13398 39.0996 3.43398 39.2996 3.83398C39.5996 4.43398 38.9996 5.13398 38.6996 4.53398C38.6996 4.53398 38.2996 4.63398 37.6996 5.13398C37.3996 5.43398 37.4996 5.73398 37.5996 5.93398C37.6996 6.13398 37.6996 6.13398 37.2996 6.33398C37.3996 6.53398 37.3996 6.53398 37.7996 6.43398C37.7996 6.43398 38.3996 6.73398 38.3996 6.93398C38.4996 7.13398 38.6996 7.53398 38.9996 7.43398C39.3996 7.53398 39.4996 7.73398 39.2996 8.03398C38.9996 8.33398 39.0996 8.63398 39.6996 8.93398C40.0996 9.03398 40.2996 9.43398 40.2996 9.43398C40.3996 9.63398 40.4996 9.83398 41.1996 9.83398C41.6996 10.134 42.0996 10.234 41.8996 10.634C42.0996 11.034 42.0996 11.034 42.6996 10.834C43.3996 10.634 43.6996 10.534 43.4996 9.83398C43.3996 9.63398 42.9996 9.53399 42.9996 9.53399C42.3996 9.93398 41.5996 8.73398 41.6996 8.03398C42.0996 6.93398 42.0996 6.93398 40.9996 7.23398C40.3996 7.63398 39.8996 7.63398 40.2996 7.43398C40.1996 7.23398 40.4996 6.83398 40.7996 6.73398C42.1996 6.33398 42.8996 5.83398 42.7996 5.43398C42.6996 4.93398 41.4996 5.33398 40.9996 6.03398C40.7996 6.53398 40.7996 6.53398 40.4996 5.93398C40.2996 5.53398 40.4996 4.93398 40.7996 4.63398C41.1996 4.53398 41.0996 4.33398 40.8996 3.83398C40.3996 3.53398 40.3996 3.53398 41.2996 3.73398C41.7996 3.83398 42.0996 3.73398 42.4996 3.63398C43.2996 3.53398 44.1996 3.43398 44.8996 3.43398C45.5996 3.43398 46.0996 3.43398 46.1996 3.53398C46.1996 3.53398 46.2996 3.73398 46.2996 4.03398C46.3996 4.23398 47.5996 4.43398 47.9996 4.43398C48.6996 4.13398 49.2996 4.93398 48.5996 5.33398C48.2996 5.63398 48.2996 5.63398 48.2996 5.63398C48.6996 5.53398 49.0996 5.73398 49.0996 5.93398L48.6996 6.03398C48.2996 5.83398 48.0996 6.63398 48.1996 7.33398C48.2996 7.53398 48.2996 7.73398 47.5996 8.13398C47.2996 8.43398 47.3996 8.63398 47.4996 9.13398C47.8996 9.33398 47.9996 9.73398 48.0996 9.93398C48.7996 9.83398 48.6996 9.63398 48.2996 9.23398C47.7996 8.63398 48.0996 8.53398 48.8996 8.93398C49.2996 9.13398 49.5996 8.83398 49.5996 8.63398C49.8996 8.33398 49.8996 8.13398 50.1996 7.83398C50.5996 7.73398 50.1996 7.63398 49.7996 7.63398C48.9996 7.53398 48.8996 7.03398 49.8996 6.23398C50.1996 6.03398 50.3996 6.03398 50.4996 5.93398C50.5996 5.93398 50.5996 5.93398 50.5996 5.93398C50.5996 6.13398 50.5996 6.13398 50.5996 6.13398C50.9996 6.13398 50.8996 5.63398 50.7996 5.13398C50.5996 4.03398 50.5996 4.03398 50.9996 4.13398C51.3996 4.33398 51.7996 4.33398 52.0996 3.83398C52.3996 3.33398 52.3996 3.33398 51.5996 3.13398C51.1996 3.13398 51.5996 3.13398 52.3996 2.83398C53.9996 2.53398 54.3996 2.53398 54.7996 2.73398C55.1996 3.13398 55.5996 3.23398 55.9996 2.53398C55.9996 2.03398 57.1996 2.03398 57.1996 2.73398C57.1996 2.93398 57.1996 2.93398 57.5996 2.73398C57.9996 2.73398 58.3996 2.73398 58.3996 2.73398C58.3996 2.93398 58.3996 3.23398 58.3996 3.23398C59.1996 3.93398 60.3996 3.13398 60.3996 2.13398C60.3996 1.63398 60.3996 1.43398 60.7996 1.73398C61.1996 1.73398 61.1996 1.53398 61.1996 1.03398C60.7996 0.333983 60.7996 0.333984 61.5996 0.633984C61.9996 0.933984 61.9996 0.933984 62.3996 0.733984C62.3996 0.533984 62.7996 0.333984 63.2996 0.333984C63.2996 0.333984 63.2996 0.533983 63.2996 1.03398C62.8996 1.23398 62.7996 1.43398 62.8996 1.73398C62.9996 1.93398 63.3996 2.23398 63.9996 2.63398C64.3996 2.93398 64.6996 3.43398 64.6996 3.63398C64.6996 4.13398 64.9996 4.13398 65.4996 3.73398C65.4996 3.73398 65.4996 3.53398 65.5996 3.23398C64.7996 2.83398 64.8996 2.63398 65.9996 2.83398C66.3996 2.93398 67.1996 3.33398 67.1996 3.33398C67.1996 3.53398 67.1996 3.53398 67.5996 3.63398C67.5996 3.63398 67.5996 3.43398 67.6996 2.73398L67.4996 1.53398L68.1996 2.63398C68.4996 3.13398 68.7996 3.93398 69.0996 4.53398C69.3996 5.33398 69.3996 5.33398 69.3996 4.83398C69.4996 4.33398 70.6996 4.23398 70.5996 4.63398C70.5996 4.83398 70.5996 4.83398 70.8996 4.93398C71.2996 5.03398 71.6996 5.13398 71.6996 4.93398L71.3996 4.63398C70.9996 4.53398 70.9996 4.53398 71.0996 4.33398C71.0996 4.33398 71.1996 4.13398 71.4996 4.23398C71.8996 4.33398 72.2996 4.43398 72.2996 4.23398C72.6996 4.13398 72.6996 4.13398 72.6996 4.13398C72.9996 4.73398 73.6996 4.93398 73.8996 4.53398C73.9996 4.33398 73.9996 4.13398 73.9996 4.13398C74.3996 4.23398 74.2996 4.73398 74.0996 5.13398C73.9996 5.53398 73.9996 5.53398 73.9996 5.53398C73.6996 4.93398 72.9996 4.73398 73.1996 5.23398C73.0996 5.63398 72.9996 5.93398 72.5996 5.83398C72.5996 5.83398 72.5996 5.83398 72.6996 5.63398C72.7996 5.43398 72.3996 5.33398 71.9996 5.13398C71.9996 5.13398 71.8996 5.33398 71.8996 5.63398C72.1996 5.93398 72.1996 6.23398 72.1996 6.23398C71.7996 6.13398 72.1996 6.23398 72.9996 6.43398C73.3996 6.33398 73.8996 6.23398 73.8996 6.23398C73.9996 6.03398 74.3996 5.93398 74.8996 5.63398C75.7996 5.43398 75.7996 5.43398 75.6996 5.93398C75.5996 6.13398 76.2996 6.63398 76.6996 6.83398C77.0996 7.03398 77.3996 7.33398 77.1996 7.83398C76.9996 8.23398 76.9996 8.53398 76.5996 8.33398C76.5996 8.33398 76.4996 8.53398 76.3996 8.73398C76.2996 8.93398 76.6996 9.13398 76.9996 9.23398C77.0996 9.03398 77.3996 9.43398 76.7996 9.63398C76.4996 9.73398 76.7996 10.334 77.0996 10.834C77.4996 11.434 77.9996 12.034 78.4996 12.234C78.6996 12.334 78.7996 12.434 78.8996 12.534C78.9996 12.634 79.0996 12.734 79.0996 12.734C78.9996 12.934 78.9996 12.934 78.6996 12.734C78.3996 12.534 78.2996 12.834 78.1996 13.034C78.3996 13.434 78.2996 13.634 78.0996 14.034C78.1996 14.634 79.5996 14.334 79.8996 13.634C79.9996 13.434 80.0996 13.234 80.0996 13.234C80.3996 13.434 80.6996 13.634 80.8996 13.334C81.1996 13.234 81.0996 12.734 80.7996 12.234C80.4996 11.734 79.8996 11.034 79.2996 10.634C78.6996 10.134 78.3996 9.73398 78.2996 8.83398C78.0996 8.23398 77.9996 7.93398 78.0996 7.83398C78.1996 7.73398 78.4996 7.73398 79.1996 7.73398C79.6996 7.43398 80.5996 7.43398 80.6996 7.23398C80.7996 7.03398 81.2996 7.03398 81.2996 7.03398C81.7996 7.03398 81.6996 7.23398 81.3996 7.83398C80.7996 8.33398 80.7996 8.33398 81.6996 8.23398C82.3996 8.63398 82.9996 8.43398 82.9996 8.43398C83.0996 8.23398 83.0996 8.23398 83.4996 8.43398C83.7996 8.83398 83.7996 8.83398 83.5996 9.23398C82.8996 9.63398 83.6996 10.034 84.1996 9.83398C84.9996 9.23398 86.2996 11.134 85.4996 11.734C84.7996 12.134 83.8996 12.134 83.3996 11.534C82.0996 10.534 80.9996 10.234 81.0996 10.834C80.8996 11.234 80.8996 11.234 81.3996 11.034C81.2996 11.234 81.5996 11.434 81.9996 11.634C82.6996 12.034 82.5996 12.234 82.4996 12.434C82.3996 12.634 82.1996 13.034 82.1996 13.034C82.4996 13.234 82.7996 13.434 82.7996 13.434C82.9996 13.034 83.6996 13.434 83.7996 14.034C83.7996 14.034 83.8996 13.834 84.0996 13.434C84.2996 13.034 84.6996 12.834 85.0996 12.934C85.5996 13.034 86.1996 13.334 86.8996 14.034C87.3996 14.434 87.8996 14.934 88.2996 15.434L88.7996 14.634C88.8996 14.434 89.2996 13.834 89.7996 13.934C90.3996 13.834 90.3996 13.834 90.3996 14.434C90.3996 15.034 90.3996 15.034 90.7996 14.534C91.0996 14.134 91.4996 14.234 91.4996 14.234C91.9996 14.334 92.0996 14.734 91.7996 14.534C91.2996 14.434 91.4996 14.934 92.2996 15.234C92.8996 15.734 93.1996 16.034 92.8996 16.434C92.7996 16.634 92.7996 16.634 92.7996 16.634C92.4996 16.334 92.4996 16.334 92.5996 16.134C92.5996 16.134 92.5996 16.034 92.4996 15.934C92.3996 15.834 92.3996 15.734 92.2996 15.834C92.0996 15.834 91.8996 16.134 91.8996 16.534C91.8996 16.934 91.9996 17.434 92.2996 17.734C92.2996 17.734 92.1996 17.934 91.9996 18.134C91.6996 17.834 91.8996 18.334 92.2996 18.434C92.2996 18.434 92.9996 18.834 93.2996 18.434C93.8996 18.334 93.8996 18.334 93.8996 19.034C93.7996 19.134 93.7996 19.134 93.6996 19.234C94.0996 19.334 94.3996 19.634 94.6996 19.934C95.2996 20.534 95.4996 20.834 95.1996 21.134C94.8996 21.434 95.0996 22.434 95.2996 23.334C95.5996 24.734 96.2996 26.034 96.5996 25.334C96.7996 25.134 96.8996 25.034 96.9996 25.434C97.1996 25.734 97.2996 26.234 97.0996 26.334C96.6996 26.134 96.8996 26.434 97.3996 27.134C97.5996 27.434 97.7996 27.834 97.8996 28.134C97.9996 28.434 98.0996 28.734 98.0996 29.034C98.0996 29.534 98.2996 30.034 98.5996 30.434C98.7996 30.834 99.0996 31.134 99.1996 31.034C99.3996 30.934 99.1996 30.534 98.9996 30.234C98.5996 29.634 98.5996 29.134 98.6996 29.034C98.8996 28.434 99.2996 28.634 99.6996 28.834C99.8996 29.134 99.8996 28.734 99.8996 28.234C99.5996 27.434 99.7996 27.334 99.9996 27.134C99.9996 27.134 99.9996 27.134 100.2 27.034C99.9996 26.734 99.7996 26.834 99.5996 27.034C99.1996 27.334 98.2996 26.034 98.1996 25.534C98.3996 25.334 98.5996 25.234 98.8996 24.934C99.4996 24.934 99.7996 25.234 100.9 26.934C101.4 27.634 101.7 28.134 101.9 28.534C102.1 28.934 102.2 29.234 102.2 29.434C102 29.534 102.4 30.234 102.6 30.634C103 30.834 103 31.334 102.6 31.134C102 31.034 101.8 30.734 101.6 30.334C101.4 30.034 101.4 30.034 101.2 30.134C101 30.734 101.4 31.434 101.8 32.134C102.2 32.334 102.2 32.334 102.4 32.234C102.2 31.834 102.4 31.734 102.6 31.634C103.2 31.734 103.2 31.734 103.8 32.834C104 33.634 104.4 33.934 104.2 33.534C104.2 33.534 104.4 33.434 105 34.034C105.4 34.334 105.8 34.534 106 34.434C106.2 34.334 106.2 34.334 106 34.934C105.8 35.534 105.8 37.334 106.1 38.134C106.3 38.534 106.5 38.434 106.5 37.934C106.9 37.734 107.1 37.634 107.3 38.034C107.4 38.434 107.6 38.834 107.9 39.134C108.3 39.434 108.4 39.834 108.3 40.334C108.2 40.834 107.9 41.434 107.8 41.834C107.8 41.834 107.9 42.234 108.5 42.434C108.8 42.734 109 43.134 109.3 43.434L108.9 43.634C108.2 43.834 108.2 43.834 108.8 44.134C109.2 44.834 109.4 44.834 109.7 44.734C109.7 44.734 109.7 44.734 109.6 45.234C109.7 45.634 109.6 46.134 109.3 46.134C109.2 45.734 109.1 46.234 109.3 46.134C109.4 46.534 109.5 46.934 109.5 46.934C109.3 47.034 109.3 47.034 109.3 47.034C109.2 46.634 109 46.734 108.8 46.734C108.6 46.834 108.7 47.234 108.7 47.634C108.7 47.634 108.6 48.134 108.3 48.134C108.1 48.234 107.8 48.234 107.8 48.234C107.9 48.634 108 49.034 108.4 48.934C108.6 48.834 108.8 48.434 109 48.334C108.8 47.534 110.3 46.734 110.5 47.534C110.5 47.534 110.4 48.034 109.9 48.134C109.8 48.634 109.8 48.634 110 48.934C110.1 49.334 110.4 50.134 110.5 50.534C110.7 51.134 110.8 51.534 110.8 51.834C110.8 52.134 110.8 52.234 110.7 52.234C109.1 52.534 108.4 53.034 108.5 53.834C108.5 53.834 108.8 54.234 110.2 54.434C110.7 54.334 111.1 54.734 111.2 55.134L111 55.534C110.8 55.534 110.8 55.534 110.8 55.934C110.8 56.334 110.6 56.334 110.4 56.434C109.9 56.434 109.9 56.434 109.7 56.934C109.7 57.734 108.8 57.834 108.8 57.434C108.8 56.634 108.1 56.734 107.9 57.534C107.7 57.934 107.7 58.334 107.9 58.734C107.9 58.734 107.9 59.134 107.7 59.534C107.4 60.334 107.6 60.734 108.1 60.334C108.8 59.534 110.2 60.234 110.2 61.134C110.2 61.134 110.2 61.134 110.4 61.134C110.6 61.134 110.6 61.534 110.6 62.334C110.5 63.534 110.4 64.034 110.3 63.134C109.9 62.334 109.9 62.334 109.8 63.934C109.7 64.434 109.7 64.934 109.7 65.134C109.5 64.734 109.3 64.734 109.1 64.734C108.6 64.734 108.4 64.334 108.4 64.334C108.2 63.934 108 63.934 106.1 63.834C105.7 64.034 105.5 64.234 105.4 64.534C105.3 64.734 105.4 64.934 105.7 65.034C105.9 65.034 105.9 65.034 105.9 65.434C105.7 65.434 106.1 65.834 106.8 65.934C107.1 65.534 107 65.934 107 66.334C107 66.334 106.9 67.134 107.1 67.534C107 67.934 107.3 67.934 107.6 67.234C107.9 66.834 108.2 66.534 108.2 66.134C108.3 65.334 109 65.734 109.2 67.034C109.4 67.434 109.5 67.934 109.8 67.934H110C109.9 68.334 109.4 68.734 109.2 68.634C109 68.634 108.8 68.634 108.7 68.534C109 69.434 109.1 71.134 108.9 71.034C108.6 71.434 108 72.534 107.9 73.834C107.8 75.034 107.3 76.634 107 76.634C106.8 76.534 106.8 76.534 106.6 76.934C106.3 77.734 105.9 77.534 105.9 76.734C105.7 76.634 105.7 76.634 105.3 77.034C104.8 77.734 104.8 77.734 105.3 78.334C105.6 78.834 105.4 79.234 105.3 79.634C105.1 80.034 105 80.434 105.2 80.434C105.6 80.634 105.2 81.734 104.3 82.334C103.7 82.534 103.5 82.934 103.9 83.034C103.9 83.034 103.9 83.034 103.5 83.334C102.9 83.534 102.9 83.534 102.7 83.834C102.7 83.834 102.3 84.134 102.1 84.034C100.9 84.334 100.9 84.334 101.3 85.034C101.3 85.534 101.5 85.634 101.7 85.734C102.1 85.434 102.1 85.434 101.7 86.234C101.1 87.334 100.4 89.234 100.8 89.034C101 88.734 101 89.134 101 89.134C100.8 89.434 100.3 89.734 100.1 89.634C100.1 89.634 99.6996 89.834 99.1996 90.534C98.9996 90.834 98.4996 91.034 98.2996 90.934C98.0996 90.834 98.0996 90.834 97.8996 91.134C97.8996 91.334 97.5996 91.934 97.2996 92.434C96.9996 92.934 96.6996 93.334 96.5996 93.234C96.3996 93.134 96.2996 93.534 96.2996 94.034C96.0996 94.934 95.8996 95.234 95.3996 95.434C95.3996 95.434 95.3996 95.434 95.2996 95.934C95.4996 96.034 95.1996 96.434 94.9996 96.234C94.7996 96.134 94.3996 96.234 94.0996 96.534C93.6996 97.034 93.0996 97.334 92.6996 97.534C92.2996 97.734 91.9996 97.734 91.8996 97.434C91.7996 96.834 91.0996 97.234 90.8996 98.134C90.5996 99.034 90.5996 99.034 91.1996 98.434C91.6996 98.334 91.6996 98.334 91.7996 98.434C91.7996 98.434 91.7996 98.434 91.4996 98.734C91.1996 99.034 90.3996 99.434 90.3996 99.434C90.0996 99.734 89.7996 99.934 89.8996 100.134C90.0996 100.334 90.1996 100.434 89.8996 100.734L89.6996 100.534C89.4996 100.334 89.3996 100.234 88.6996 100.134L87.7996 100.334C87.4996 100.834 87.1996 101.234 86.7996 101.734L86.0996 102.834L84.9996 102.734C84.4996 102.834 83.9996 102.834 83.9996 102.834C84.0996 103.034 84.2996 103.234 83.8996 103.434C83.5996 103.634 83.5996 103.634 83.3996 103.434C83.4996 102.834 82.4996 103.534 82.3996 104.134C82.1996 104.534 82.2996 104.734 82.4996 104.934C82.9996 104.934 82.9996 104.934 82.0996 105.134C81.5996 105.134 81.2996 105.334 80.6996 105.934C80.4996 106.334 80.1996 106.734 80.0996 106.534C79.4996 106.334 79.0996 106.534 78.9996 107.134C79.0996 107.334 79.0996 107.334 78.4996 107.134C77.9996 107.134 77.7996 106.734 77.6996 106.534C78.0996 106.334 77.5996 106.334 77.2996 106.734L76.9996 107.134C77.0996 107.334 77.0996 107.334 76.6996 107.534C76.2996 107.734 75.7996 107.634 75.6996 107.434C75.7996 106.834 75.4996 107.034 75.0996 107.934C74.7996 108.334 74.7996 108.334 74.6996 108.134C74.8996 107.534 73.2996 108.034 72.2996 108.834C71.1996 109.434 69.6996 110.034 69.9996 109.634C70.3996 109.534 69.8996 109.434 69.5996 109.734C69.1996 109.834 68.6996 109.734 68.6996 109.534C68.1996 109.434 68.1996 109.234 68.5996 109.334C69.3996 109.134 70.0996 108.634 69.6996 108.734C69.1996 108.634 69.1996 108.634 68.0996 109.034C67.6996 109.134 67.2996 109.034 67.1996 108.834L67.5996 108.734C67.9996 108.634 68.3996 108.534 68.3996 108.534C69.0996 108.034 68.1996 106.934 67.6996 106.534C66.8996 106.534 66.8996 106.534 67.2996 106.634C67.7996 106.934 67.7996 106.934 67.5996 107.534C67.4996 107.734 67.1996 107.934 66.9996 108.034C66.7996 108.134 66.5996 108.234 66.5996 108.234C66.4996 108.234 66.2996 108.334 66.1996 108.334C66.5996 108.234 66.6996 108.434 66.3996 109.034C66.4996 109.434 66.5996 109.734 66.9996 109.634C67.3996 109.534 67.3996 109.534 67.4996 109.734C67.4996 109.734 67.4996 109.734 67.0996 109.834C66.5996 109.734 66.2996 110.034 66.4996 110.434C66.9996 110.534 66.9996 110.534 67.2996 110.234C67.8996 110.534 66.6996 111.134 65.7996 110.834C65.2996 110.734 64.8996 110.834 64.6996 111.334C64.6996 111.234 64.5996 111.134 64.5996 110.934C64.4996 110.734 64.4996 110.534 64.4996 110.534C65.3996 110.634 65.1996 110.134 64.2996 109.834C63.4996 109.734 63.4996 109.734 64.5996 109.334C64.9996 109.234 65.2996 108.934 64.9996 108.034C64.8996 107.634 64.6996 106.934 64.5996 106.734C64.3996 106.534 64.1996 106.334 63.9996 106.134L63.7996 106.834C63.5996 107.334 63.5996 107.634 64.0996 107.934C64.4996 108.034 64.5996 108.334 63.8996 108.734C63.5996 109.234 63.5996 109.234 62.7996 108.934C62.5996 108.834 62.2996 108.834 61.8996 108.934C61.5996 108.934 61.1996 109.034 60.7996 109.034C59.9996 109.134 59.5996 109.234 60.0996 109.334C60.5996 109.934 60.9996 111.534 60.5996 111.834C60.1996 112.134 59.7996 112.234 59.3996 112.234C59.3996 112.234 58.5996 112.534 58.1996 112.634C57.3996 112.934 57.3996 112.934 57.7996 112.434C58.1996 112.134 58.0996 111.934 58.0996 111.734C57.6996 111.534 57.9996 111.234 58.6996 110.534C58.9996 110.034 59.2996 109.534 59.1996 109.034C59.0996 108.334 58.9996 108.134 57.9996 108.734C57.2996 109.034 57.2996 109.234 58.0996 109.234C58.4996 109.234 58.4996 109.234 58.4996 109.434C58.4996 109.634 58.4996 109.634 58.4996 109.634C57.9996 109.234 56.5996 109.834 56.9996 110.234C56.9996 110.434 57.0996 110.734 56.6996 110.734C55.8996 111.034 55.8996 111.034 55.9996 111.234C56.3996 111.434 56.4996 111.634 56.4996 111.634C56.0996 111.634 55.6996 111.434 55.5996 111.234C55.0996 110.834 55.0996 110.534 55.4996 110.534C55.4996 110.534 55.4996 110.534 55.0996 110.334C54.6996 110.334 54.2996 110.134 54.2996 109.934C54.2996 109.734 54.2996 109.734 53.4996 109.734C52.6996 109.734 52.2996 109.534 52.2996 109.234C52.2996 109.034 52.2996 109.034 51.4996 109.234C50.6996 109.234 49.8996 109.434 49.8996 109.434C49.4996 109.434 49.4996 109.634 49.8996 110.134C50.6996 110.834 50.6996 111.134 50.2996 111.334C49.8996 111.534 49.3996 111.634 48.8996 111.634C48.3996 111.634 47.9996 111.534 47.7996 111.434C47.7996 111.234 47.3996 111.134 46.9996 111.134C46.9996 111.134 46.5996 110.834 46.5996 110.634C46.5996 110.434 46.4996 110.234 46.1996 110.034C45.8996 109.834 45.3996 109.634 44.6996 109.434C44.2996 109.334 43.8996 109.334 43.8996 109.534C43.8996 109.634 43.7996 109.734 43.6996 109.734C43.5996 109.734 43.4996 109.734 43.4996 109.734C43.0996 109.634 42.6996 109.534 42.6996 109.534C42.6996 109.734 42.5996 110.034 42.9996 110.034C43.3996 110.134 43.3996 110.134 43.3996 110.334C43.2996 110.834 43.2996 110.834 42.9996 110.534C42.9996 110.334 42.5996 110.234 42.1996 110.134C42.1996 110.134 42.1996 110.134 42.1996 110.334C42.5996 110.434 42.5996 110.634 42.4996 110.834C42.4996 111.034 41.2996 110.834 40.8996 110.234C40.5996 109.734 40.1996 109.634 40.4996 110.134C41.1996 111.034 41.1996 111.234 40.7996 110.934C40.3996 110.834 39.9996 110.734 39.9996 110.734C39.9996 110.934 39.5996 110.834 38.7996 110.234C38.3996 109.934 38.4996 109.634 38.4996 109.634C38.4996 109.434 38.5996 109.134 38.5996 109.134C38.3996 109.034 38.1996 109.034 38.0996 109.034C37.9996 109.034 37.8996 108.934 37.8996 108.934C37.7996 109.434 36.9996 109.134 36.6996 108.534C36.7996 108.334 36.3996 108.234 36.2996 108.634C35.8996 108.734 35.3996 108.834 34.9996 108.734C34.5996 108.634 34.5996 108.634 34.5996 108.834C34.5996 108.834 34.6996 108.834 34.7996 108.934C34.8996 109.034 35.0996 109.034 35.2996 109.134C35.2996 109.134 35.2996 109.134 34.7996 109.234C33.9996 109.134 33.9996 109.134 33.5996 108.834C33.3996 108.034 33.0996 107.634 32.4996 108.134C31.9996 108.434 31.6996 108.034 31.9996 107.134C32.3996 107.034 31.4996 106.134 30.9996 106.434C30.7996 106.434 30.4996 106.434 30.1996 106.234C29.9996 106.134 29.7996 105.934 29.8996 105.734C29.9996 105.534 30.2996 105.734 30.6996 105.834C31.0996 106.034 31.1996 105.734 31.1996 105.534C31.2996 105.334 31.2996 105.334 30.8996 105.134C29.5996 105.034 27.5996 103.734 27.7996 103.334C27.8996 103.134 27.8996 103.134 26.8996 102.534C26.1996 102.134 25.8996 101.934 25.7996 101.734C25.6996 101.534 25.7996 101.334 25.9996 100.934C26.1996 100.534 25.8996 100.334 24.9996 100.334C24.5996 100.334 24.3996 100.534 24.1996 100.934C24.2996 101.534 23.8996 101.534 22.6996 101.034C21.7996 100.934 21.3996 100.734 20.8996 100.034C19.6996 98.834 19.6996 98.834 19.0996 99.034C18.7996 99.434 18.4996 99.134 17.5996 98.334C17.0996 97.934 16.7996 97.634 16.5996 97.534C16.3996 97.334 16.2996 97.334 16.2996 97.334C16.6996 97.434 16.6996 95.534 16.3996 95.234C16.2996 95.434 15.7996 95.334 15.4996 95.034C15.1996 94.734 14.4996 94.334 14.2996 94.534C13.9996 94.834 13.9996 94.834 13.9996 94.234C13.5996 93.434 13.6996 93.334 14.1996 93.434C14.4996 93.734 14.9996 94.334 14.9996 94.334C15.2996 94.634 15.2996 94.634 15.3996 94.434C15.3996 94.434 15.2996 93.934 14.6996 93.434C14.0996 92.834 14.0996 92.834 14.8996 93.234C15.7996 93.434 15.7996 93.434 15.0996 93.034C14.4996 92.434 14.0996 92.334 13.4996 92.434C13.7996 92.134 13.6996 91.634 13.1996 91.034C12.6996 89.834 12.1996 89.834 12.1996 90.934C12.6996 92.134 12.4996 92.334 12.0996 92.234C11.7996 91.934 11.7996 91.934 11.6996 91.434C11.7996 90.834 11.7996 90.834 11.5996 90.934C11.3996 91.134 11.1996 90.734 10.9996 89.834C10.8996 89.334 10.7996 88.934 10.5996 88.634C10.5996 88.634 10.3996 88.334 10.4996 88.134C10.4996 88.134 10.4996 88.134 10.2996 87.834C10.3996 87.734 10.4996 87.634 10.6996 87.534C11.4996 87.434 11.4996 87.434 11.4996 87.834C11.5996 88.334 11.7996 88.634 11.7996 88.634C11.9996 88.934 12.1996 88.734 12.3996 88.634C12.2996 88.134 12.4996 88.034 12.8996 88.134C13.4996 88.134 13.4996 88.134 12.9996 87.534C12.6996 87.234 11.8996 86.434 11.4996 86.334C11.0996 86.134 10.6996 86.034 10.4996 85.734C10.2996 85.434 10.0996 85.534 9.89962 85.734C9.49962 86.034 9.29961 86.134 9.59962 86.534C9.79961 86.834 9.79962 86.834 9.49962 87.134C9.29962 87.234 9.09962 87.434 9.09962 87.434C9.59962 88.034 9.19962 88.434 8.09962 87.734C7.49962 87.734 7.29962 87.334 7.59962 87.034C7.79962 86.934 7.79962 86.934 7.59962 86.534C7.19962 86.334 7.09962 85.834 7.89962 85.734C8.49962 85.334 8.59962 85.134 7.99962 84.134C7.39962 83.634 7.79961 83.334 8.59962 83.734C8.99961 83.934 9.19962 83.834 9.19962 82.834C9.19962 82.334 9.39962 81.734 9.39962 81.734C9.59962 81.634 9.99962 81.334 9.99962 81.334C10.5996 80.934 11.3996 80.834 11.4996 81.634C11.4996 82.034 11.8996 81.834 11.8996 80.934C11.9996 80.434 11.8996 79.834 11.6996 79.534C11.4996 79.134 11.2996 79.034 11.1996 79.234C10.9996 79.334 10.5996 79.134 10.4996 78.834C10.2996 78.534 9.99963 77.834 9.79963 77.534L9.59962 77.234C9.39962 76.934 9.39962 77.334 9.39962 77.834C9.39962 78.234 8.99963 78.534 8.79963 78.634C8.39963 78.434 8.39963 78.434 8.29963 77.634C8.29963 77.134 8.49963 77.034 8.79963 76.934C8.99963 76.834 8.79963 76.934 8.79963 77.334C8.59963 77.434 8.79962 77.734 8.99962 77.234C9.79962 76.834 9.99961 76.634 10.0996 77.434C10.2996 77.734 10.3996 78.034 10.7996 77.834C10.9996 77.734 11.3996 77.434 11.5996 77.334C11.5996 77.334 11.5996 77.234 11.5996 77.034C11.5996 76.934 11.5996 76.734 11.4996 76.534C11.2996 76.234 11.2996 76.234 11.5996 76.134C11.7996 76.034 11.8996 75.634 11.8996 75.134C11.7996 74.434 11.7996 74.434 11.2996 73.834C10.9996 73.634 10.6996 73.734 10.4996 73.834C10.4996 73.834 10.1996 73.634 9.99962 73.334C9.69962 72.734 9.79962 72.234 10.1996 72.534C10.4996 72.734 10.4996 72.734 10.4996 72.734C10.3996 72.434 10.1996 72.134 9.89962 71.834C9.39962 71.734 9.09962 71.034 9.69962 71.134C10.1996 71.334 10.6996 71.134 10.8996 71.034C11.1996 70.534 11.1996 70.534 10.8996 69.634C10.4996 68.334 10.1996 68.134 10.2996 69.134C10.4996 69.734 10.3996 69.434 9.79963 68.934C9.29963 68.034 9.29962 68.034 9.39962 67.634C9.59962 67.534 9.49961 67.234 9.09962 66.634C8.79961 66.334 8.49963 66.134 8.29963 66.134C8.79963 66.334 8.99961 67.034 8.59962 67.134C8.39962 67.234 8.19963 67.634 8.29963 67.934C8.09963 68.034 8.39962 68.234 8.49962 67.834C8.69962 67.734 8.89963 67.734 8.79963 68.134C8.89963 68.434 8.99962 68.834 9.19962 68.734C9.69962 68.934 9.79962 69.234 9.19962 69.434C8.79962 69.634 8.59962 70.034 8.89962 70.734C8.99962 71.034 9.09962 71.434 8.89962 71.534C8.69962 71.634 8.59962 72.034 8.69962 72.434C8.79962 72.734 9.09962 73.434 8.89962 73.534C8.79962 73.934 8.99962 73.834 9.49962 73.634C9.89962 73.434 10.0996 73.734 10.2996 74.434C10.3996 74.734 10.2996 75.634 10.0996 75.734C9.59962 76.434 9.59962 76.434 9.49962 75.634C9.19962 75.034 8.29962 73.434 7.89962 73.634C7.89962 73.634 7.79962 74.034 7.99962 74.434C8.09962 74.734 7.79962 74.534 7.39962 74.334C6.99962 74.134 6.69963 73.834 6.79963 74.234C6.59963 74.334 7.09962 74.934 7.69962 75.034C8.09962 75.234 8.39962 75.534 8.59962 75.834C8.79961 76.134 8.09962 76.934 7.49962 77.234C7.09962 77.434 7.09962 77.934 7.19962 78.234C7.19962 78.734 7.39962 78.534 7.59962 78.434C7.69962 78.134 7.89962 78.234 7.99962 78.534C8.09962 78.834 8.19962 79.134 8.09962 79.434C8.09962 79.434 8.29962 79.734 8.69962 80.034C9.29962 80.534 9.29963 80.534 9.29963 81.034C8.89963 81.334 8.69962 81.434 8.69962 81.434C8.49962 81.134 8.09962 80.934 7.89962 81.034C7.09962 81.034 7.09963 81.034 7.29963 81.434C7.49963 81.734 7.49962 81.734 7.49962 81.734C7.09962 81.934 7.29962 82.334 5.99962 79.834C5.49962 78.734 5.09963 78.034 5.29963 77.934C5.49963 77.834 5.69962 77.234 5.99962 76.634C6.09962 75.734 6.09963 75.734 5.79963 75.434C5.19963 75.234 4.99963 75.834 5.29963 76.534C5.29963 76.534 4.69962 76.334 4.49962 76.434C3.89962 76.734 3.29962 76.634 2.69962 75.034C2.59962 74.634 2.59963 74.134 2.79963 74.034C2.79963 74.034 2.89962 74.434 3.09962 74.834C3.29962 75.234 3.29962 75.234 3.49962 75.134C3.69962 75.034 4.29962 75.234 4.39962 75.534C4.59962 75.934 4.79962 75.834 4.99962 75.734L4.79963 75.334C4.59963 74.934 4.69962 74.534 4.89962 74.434C5.19962 73.834 5.19963 73.834 4.79963 74.034C4.49963 73.734 4.49962 73.734 4.49962 73.334C4.59962 72.834 4.19962 72.634 3.99962 72.734C3.79962 72.834 3.59962 72.934 3.69962 72.434C3.99962 71.934 3.69962 71.634 3.19962 71.734C3.29962 71.234 3.49962 71.234 3.69962 71.134C3.99962 71.434 3.89962 71.034 3.09962 70.134C2.59962 69.434 2.39962 69.534 2.19962 69.634C1.99962 69.734 1.79963 69.834 1.79963 68.934C1.69963 68.534 1.59962 68.134 1.49962 68.634C1.29962 68.734 1.09962 68.734 0.999625 68.334C0.899625 67.934 0.799615 67.534 0.599615 67.634C0.399615 67.734 0.0996154 67.734 0.0996154 67.334C-0.000384554 66.934 -0.00037539 66.934 0.499625 67.234C1.09962 67.934 1.99962 67.634 1.59962 66.934C1.29962 66.634 1.69962 66.434 2.39962 67.134C3.09962 68.134 3.59962 68.034 3.19962 67.334C3.19962 67.334 3.19962 67.334 3.49962 67.634C3.79962 67.934 3.99963 67.834 4.29963 67.834C4.79963 66.934 4.49962 65.834 4.09962 65.934L4.19962 66.334C4.19962 66.534 4.29963 66.734 4.29963 66.834C4.29963 66.934 4.39962 67.034 4.39962 67.034C4.19962 67.134 3.99962 67.134 3.99962 67.134C3.19962 64.534 3.49963 64.534 4.29963 65.034C4.59963 65.334 4.79962 65.334 4.99962 64.834C5.19962 64.434 5.49963 64.734 5.79963 65.034C6.19963 65.734 6.89962 65.834 6.99962 65.134C6.99962 65.134 7.19962 65.034 7.89962 64.934C8.59962 65.134 8.59962 65.134 8.69962 64.334C8.89962 63.934 8.89962 63.934 8.59962 64.034C8.59962 64.034 8.09962 63.834 7.99962 63.134C7.39962 62.234 6.39963 61.634 6.79963 62.634C7.09963 63.334 7.09962 63.334 6.19962 63.134C5.49962 62.934 5.19963 62.934 5.29963 63.734C5.39963 64.134 5.39962 64.334 5.39962 64.334C5.39962 64.334 5.29962 64.134 5.09962 63.834C4.59962 63.534 4.49962 63.234 4.89962 62.734C4.99962 62.234 5.09962 62.034 5.19962 61.934C4.89962 62.734 5.29962 62.534 5.89962 61.734C6.29962 61.334 6.29963 60.934 6.29963 60.934C6.09963 60.934 5.79963 61.034 5.79963 61.034C5.59963 61.034 5.29962 61.134 5.09962 60.734C4.79962 60.034 4.29962 60.134 4.19962 60.934C3.99962 60.934 3.59963 61.434 3.29963 61.434C2.79963 61.534 2.59963 61.534 2.79963 61.134C2.69963 60.334 2.89962 60.334 3.69962 60.634C3.99962 60.934 3.89962 60.634 3.89962 60.234C3.79962 59.434 5.19962 59.334 5.49962 59.634C5.79962 60.334 6.89962 59.834 7.09962 59.434C7.49962 58.634 7.49963 58.334 6.79963 58.734C6.59963 58.734 6.29962 58.834 6.59962 58.734C6.79962 58.034 7.69962 57.934 7.99962 58.534C7.99962 58.734 7.99962 58.834 7.99962 58.834C8.19963 58.134 8.19962 58.434 8.49962 58.734C8.69962 58.034 9.39963 57.934 10.2996 58.534C10.9996 59.134 10.9996 59.134 10.5996 59.534C10.3996 59.534 10.3996 59.534 10.3996 59.534C10.8996 59.834 11.2996 59.334 11.4996 58.734C11.6996 58.134 11.6996 57.334 11.3996 56.834C11.1996 56.234 11.3996 56.234 12.2996 56.734C12.7996 57.034 12.9996 57.334 12.9996 57.634C12.7996 58.234 13.4996 58.834 13.9996 59.034C14.1996 59.034 14.4996 58.934 14.1996 59.034C13.9996 59.334 14.0996 59.934 14.2996 60.234C14.2996 60.234 14.2996 60.534 14.0996 60.834C13.9996 61.434 13.9996 61.434 14.5996 61.034C15.1996 60.634 16.2996 61.334 16.3996 62.134C16.8996 63.234 17.0996 63.434 17.5996 62.434C17.9996 62.034 18.3996 61.434 18.5996 61.434C18.7996 61.434 19.0996 61.334 18.7996 61.134C18.4996 61.034 18.3996 60.734 18.3996 60.434C18.3996 60.134 18.5996 59.834 18.7996 59.834C18.9996 59.834 19.2996 60.034 18.8996 60.334C18.6996 60.634 18.8996 60.634 19.3996 60.534C19.7996 60.234 19.7996 60.234 19.8996 60.434C20.0996 60.434 20.0996 60.434 20.0996 60.434C19.9996 60.134 21.3996 59.234 21.7996 59.134C21.9996 59.134 22.0996 59.334 22.0996 59.334C21.8996 59.834 22.4996 60.534 22.9996 60.434C23.4996 60.534 24.1996 59.534 23.9996 59.334C23.8996 58.834 24.5996 58.834 24.8996 59.034C24.8996 59.234 25.3996 59.234 25.5996 59.134C26.4996 58.834 26.4996 59.234 25.4996 59.834C24.9996 59.934 24.8996 60.134 24.8996 60.134C25.0996 60.234 25.2996 60.534 25.3996 60.834C25.4996 61.234 25.4996 61.534 25.2996 61.834C24.8996 62.134 24.8996 62.334 25.1996 62.334C25.2996 62.334 25.3996 62.434 25.4996 62.534C25.5996 62.634 25.5996 62.834 25.5996 62.934C25.6996 63.134 25.8996 63.134 25.8996 63.134C26.0996 63.034 26.0996 63.034 26.0996 62.834C26.0996 62.834 26.4996 62.734 26.7996 62.834C27.2996 62.934 27.7996 62.834 27.7996 62.834C27.8996 63.034 27.8996 63.234 27.6996 63.334C27.8996 63.234 27.9996 63.434 27.7996 63.734C27.8996 64.134 27.8996 64.134 27.8996 64.134C28.0996 64.034 28.3996 64.234 28.4996 64.534C28.5996 64.734 28.5996 64.734 28.5996 64.734C28.2996 64.634 26.9996 65.734 27.0996 65.934C27.1996 66.134 26.9996 66.234 26.6996 66.334C26.2996 66.534 25.8996 66.934 26.0996 67.334C25.8996 67.934 25.8996 67.934 26.3996 67.434C27.1996 66.834 27.4996 66.934 26.9996 67.634C26.8996 67.934 26.7996 68.234 26.6996 68.034C26.5996 67.834 26.3996 67.934 26.1996 68.034C26.1996 68.034 26.2996 68.234 26.3996 68.434C26.6996 68.534 26.6996 68.534 26.8996 68.434C26.9996 68.134 27.3996 67.934 27.8996 67.934L28.5996 67.834L27.9996 68.134C27.2996 68.734 27.1996 69.034 27.9996 69.134C28.7996 69.234 28.7996 69.234 28.9996 68.634C29.0996 67.834 29.8996 67.734 30.0996 68.334C30.2996 68.734 29.8996 68.934 29.4996 68.634C29.3996 68.434 29.1996 68.534 29.2996 68.734C29.0996 69.334 29.8996 69.334 30.1996 68.934C30.5996 68.734 30.5996 68.734 30.7996 69.034C30.9996 69.234 31.0996 69.434 30.8996 69.534C30.7996 69.634 30.4996 69.734 30.0996 69.734C29.4996 69.634 29.1996 70.034 29.5996 70.234C29.8996 70.334 29.9996 70.434 29.9996 70.434C29.6996 70.834 29.7996 71.034 30.4996 70.834C31.1996 70.634 31.0996 71.234 30.1996 71.534L29.5996 71.934L30.1996 72.334C30.8996 72.634 30.9996 72.534 30.9996 73.334C31.0996 73.834 31.0996 73.834 31.2996 73.634C31.6996 73.334 31.8996 73.634 31.8996 74.334C31.6996 74.434 31.9996 74.834 32.0996 74.934C32.3996 75.234 32.3996 75.234 32.6996 74.934C32.8996 74.434 32.9996 74.634 33.1996 74.734C33.4996 75.034 33.5996 75.534 33.2996 75.834C33.2996 75.834 33.2996 76.134 33.3996 76.334C33.4996 76.834 33.6996 76.634 33.8996 76.434C34.1996 76.134 34.4996 76.434 34.3996 77.234C34.3996 77.534 34.5996 77.734 34.6996 77.834C35.2996 77.734 35.4996 78.234 35.1996 78.834C35.0996 79.334 35.0996 79.634 35.2996 79.634C35.4996 79.734 35.6996 79.534 35.9996 79.134C35.9996 79.134 36.1996 79.234 36.3996 79.434C36.5996 79.834 36.7996 80.034 37.5996 79.934C38.3996 79.934 38.5996 80.034 38.5996 80.034C38.4996 80.534 38.6996 80.634 39.1996 80.334C39.2996 80.134 39.2996 80.134 39.2996 80.634C39.2996 81.134 39.2996 81.134 39.3996 81.234C39.4996 81.034 39.6996 81.134 39.8996 81.234C40.0996 81.334 40.5996 81.334 40.6996 81.134C40.7996 80.934 40.9996 81.034 40.7996 81.434C40.8996 81.734 40.8996 81.734 40.9996 81.534C41.0996 81.334 41.2996 81.434 41.4996 81.534C41.4996 82.034 42.0996 81.834 41.9996 81.534C42.0996 81.334 42.0996 81.334 42.2996 81.434C42.6996 81.634 42.6996 82.134 42.5996 82.334C42.4996 82.534 42.6996 82.634 42.8996 82.734C43.0996 82.834 43.4996 82.934 43.3996 83.234C43.4996 83.534 43.6996 83.634 44.1996 83.534C44.8996 83.534 44.8996 83.534 44.6996 83.934C44.4996 83.834 44.4996 83.834 44.3996 84.034C44.4996 84.534 45.1996 84.534 45.1996 83.734C45.3996 83.034 45.3996 83.034 45.4996 83.534C45.5996 83.834 45.4996 84.234 45.4996 84.234C45.3996 84.434 45.5996 84.534 46.0996 84.434C46.8996 83.934 47.6996 84.134 47.5996 84.534C47.5996 84.734 47.6996 85.034 48.1996 84.834C48.5996 84.934 49.0996 85.034 49.1996 85.234C49.3996 85.534 49.5996 85.534 49.7996 85.334C49.8996 85.334 50.0996 85.234 50.2996 85.234C50.4996 85.234 50.6996 85.134 50.9996 85.234C51.4996 85.234 51.8996 85.334 51.9996 85.534C51.9996 85.734 52.5996 85.834 53.4996 85.834C53.8996 85.834 54.2996 85.834 54.5996 85.934C54.8996 86.034 55.1996 86.134 55.3996 86.234C55.5996 86.434 56.0996 86.434 56.0996 86.434C56.0996 86.434 56.0996 86.234 56.0996 85.934C56.0996 85.634 56.4996 85.534 56.8996 85.634C57.0996 85.734 57.3996 85.834 57.4996 85.934C57.6996 86.034 57.7996 86.234 57.7996 86.334C57.7996 86.534 57.8996 86.834 57.5996 86.634C57.2996 86.434 57.0996 86.434 57.1996 86.734C56.9996 87.234 57.0996 87.434 57.2996 87.434C57.7996 87.634 57.9996 87.534 58.2996 86.834C58.4996 86.534 58.5996 86.034 58.5996 85.834C58.5996 85.634 58.7996 85.634 59.1996 85.734C59.5996 85.634 59.7996 85.634 59.7996 85.634C59.9996 85.634 59.9996 85.634 60.2996 85.734C60.5996 85.934 60.6996 85.634 61.0996 85.234C61.1996 84.934 61.1996 84.934 61.2996 85.134C61.2996 85.234 61.4996 85.234 61.6996 85.234C61.8996 85.134 62.2996 85.034 62.7996 84.934C63.1996 84.834 63.5996 84.534 63.8996 84.434C63.9996 84.334 64.1996 84.234 64.1996 84.234C64.2996 84.134 64.2996 84.134 64.2996 84.134C64.4996 84.034 64.6996 83.934 64.6996 83.934C64.7996 84.134 65.1996 83.934 65.3996 83.834C65.6996 83.434 66.1996 83.434 66.3996 83.334C66.6996 83.434 66.6996 83.434 66.7996 83.134C66.6996 82.934 66.8996 82.834 67.0996 82.734C67.3996 82.834 67.5996 82.734 67.7996 82.634C68.0996 82.234 68.0996 82.234 68.0996 82.234C68.1996 82.434 68.6996 82.434 69.0996 82.134C69.4996 81.934 69.6996 81.834 69.8996 81.834C70.0996 81.834 70.2996 82.034 70.5996 82.234C70.9996 82.534 71.2996 82.834 71.4996 82.734C71.5996 82.434 71.2996 82.034 70.6996 81.634C70.3996 81.534 70.5996 81.434 70.6996 81.334C70.8996 81.234 71.1996 80.934 71.3996 81.134C71.3996 81.134 71.5996 81.034 71.6996 80.834C72.0996 80.534 71.8996 80.434 71.7996 80.234C71.2996 80.034 71.4996 79.834 71.6996 80.034C71.8996 80.134 72.0996 80.134 72.4996 79.934C72.6996 79.834 72.8996 79.734 73.1996 79.534C73.4996 79.334 73.7996 79.034 74.2996 78.734C74.8996 78.134 75.1996 77.534 75.2996 77.334C75.0996 76.834 75.1996 76.734 75.5996 77.034C75.8996 77.334 76.1996 77.034 75.9996 76.534C75.9996 76.234 76.2996 76.234 76.3996 76.334C76.5996 76.434 76.6996 76.334 76.8996 76.134C76.8996 75.834 76.9996 75.934 77.3996 76.234C77.7996 76.534 78.2996 76.634 78.2996 76.634C78.3996 76.434 78.1996 76.334 78.0996 76.134C77.6996 75.834 77.8996 75.634 77.9996 75.534C78.2996 75.134 78.2996 75.134 78.2996 75.134C78.0996 75.034 78.0996 74.734 77.9996 74.334C77.8996 74.034 77.9996 73.834 78.1996 73.934C78.1996 73.934 78.5996 74.234 78.7996 74.334C78.9996 74.434 78.9996 74.434 78.8996 74.634C78.7996 74.834 78.6996 75.034 78.7996 75.134C78.8996 75.234 78.9996 75.234 79.0996 75.234C79.1996 75.234 79.2996 75.234 79.2996 75.234C79.4996 74.834 79.0996 73.434 78.7996 73.034C78.7996 73.034 78.7996 73.034 79.0996 72.934C79.3996 72.834 79.6996 72.834 79.6996 72.334C79.5996 72.034 79.8996 71.434 79.9996 71.234C80.5996 70.534 80.5996 70.534 81.0996 71.034C81.8996 71.434 81.8996 71.434 81.5996 71.034C81.2996 70.634 81.1996 70.334 81.3996 70.434C81.3996 70.434 81.2996 70.134 81.3996 69.934C81.2996 69.934 81.2996 69.734 81.2996 69.634C81.2996 69.434 81.2996 69.234 81.2996 69.034C81.4996 68.434 81.4996 68.434 81.9996 68.634C82.1996 68.734 82.3996 68.734 82.4996 68.734C82.5996 68.734 82.6996 68.734 82.6996 68.734C82.9996 68.634 82.7996 68.334 82.7996 68.534C82.4996 68.534 82.3996 68.234 82.3996 67.934C82.3996 67.534 82.4996 67.134 82.6996 66.834C82.7996 66.434 82.8996 66.234 82.5996 65.634C81.6996 64.134 81.6996 64.134 81.9996 64.134C82.3996 64.234 82.9996 63.734 82.8996 63.434C82.8996 63.434 82.6996 63.134 82.4996 63.134C82.2996 62.834 82.2996 62.834 82.4996 62.934C82.4996 62.934 82.9996 63.034 83.1996 63.034C83.6996 63.134 83.6996 62.934 83.4996 62.834C83.2996 62.534 83.0996 62.334 83.3996 62.134C83.3996 62.134 83.3996 62.034 83.3996 61.834C83.3996 61.634 83.3996 61.434 83.2996 61.234C83.0996 60.734 83.0996 60.734 83.3996 60.834V60.634C83.3996 60.434 83.4996 60.234 83.6996 60.034C83.8996 59.834 83.9996 59.434 83.4996 59.334C83.2996 59.334 83.2996 59.134 83.2996 58.934C83.4996 58.734 83.5996 57.834 83.5996 57.634C83.3996 57.634 83.3996 57.434 83.3996 57.034C83.3996 56.934 83.3996 56.834 83.3996 56.734C83.3996 56.734 83.3996 56.734 83.3996 56.834C83.3996 57.034 83.5996 57.034 83.8996 57.034C83.9996 57.034 84.0996 56.634 83.9996 56.134C83.9996 55.634 83.7996 55.034 83.4996 54.734C83.3996 54.434 83.1996 54.034 83.2996 53.734C83.2996 53.434 83.4996 53.134 83.7996 52.934C83.9996 52.934 84.1996 52.634 83.8996 52.434C83.5996 52.234 83.5996 52.034 83.7996 52.034C83.7996 52.034 83.7996 51.834 83.6996 51.634C83.6996 51.434 83.5996 51.034 83.4996 50.534C83.4996 49.934 83.2996 49.434 83.0996 49.034C82.8996 48.634 82.5996 48.434 82.3996 48.634C82.4996 48.834 82.1996 48.734 82.2996 48.434C82.1996 48.234 82.1996 48.034 81.9996 48.334C81.7996 48.434 81.2996 48.334 81.1996 48.134C80.5996 47.934 80.7996 47.834 81.0996 47.934C81.4996 47.734 81.7996 47.734 81.6996 47.534C81.5996 47.334 81.7996 47.234 82.0996 47.134C82.4996 46.934 82.6996 45.934 82.4996 45.534C82.2996 45.134 82.1996 44.934 82.3996 44.834C82.5996 44.734 82.6996 44.434 82.5996 44.234C82.5996 44.234 82.3996 44.334 82.2996 44.634C81.9996 45.034 81.7996 45.134 81.2996 44.134C80.9996 43.534 80.8996 43.334 81.0996 43.234C81.1996 42.934 81.1996 42.934 80.8996 42.834C80.6996 42.934 80.5996 42.734 80.7996 42.634C80.8996 42.434 80.8996 42.234 80.7996 42.134C80.5996 42.034 80.2996 42.034 79.9996 42.134C79.4996 42.234 79.4996 42.234 79.7996 41.734C80.1996 41.534 80.2996 41.134 79.9996 41.134C79.4996 41.234 79.3996 41.034 79.5996 40.634C79.6996 40.534 79.6996 40.534 79.7996 40.534C79.4996 40.534 79.3996 40.334 79.0996 39.934C78.9996 39.434 78.6996 39.134 78.4996 38.734C78.1996 38.434 77.8996 38.034 78.0996 37.934C78.2996 37.434 77.2996 35.934 76.7996 36.134C76.7996 36.134 76.4996 35.834 76.1996 35.534C75.9996 35.034 75.8996 35.234 75.5996 35.534L75.0996 36.034L74.8996 35.234C74.8996 34.234 74.6996 33.534 74.2996 33.534L73.7996 33.134C73.5996 32.734 73.3996 32.534 73.2996 32.734C72.9996 32.834 72.9996 32.834 72.8996 32.934C72.8996 32.934 72.8996 32.934 72.6996 32.834C72.5996 32.734 72.3996 32.634 72.0996 32.434C71.3996 31.934 71.1996 31.834 71.0996 32.034C70.8996 32.434 70.8996 32.434 70.8996 31.934C70.9996 31.434 70.9996 31.434 70.6996 31.834C70.5996 32.034 70.2996 32.134 70.2996 31.634C70.0996 31.534 70.1996 31.334 70.2996 31.134C70.3996 30.934 70.2996 30.634 70.2996 30.334C69.9996 29.934 69.9996 29.934 69.9996 30.434C69.9996 30.634 69.9996 30.834 69.8996 30.934C69.7996 30.934 69.6996 30.834 69.3996 30.934C69.0996 31.034 69.1996 30.834 69.3996 30.434C69.5996 30.034 69.3996 29.934 68.9996 30.234C68.4996 30.234 68.4996 30.234 68.3996 29.934C68.3996 29.434 68.3996 29.434 67.9996 29.734C67.4996 30.234 66.8996 30.034 67.3996 29.434L67.7996 29.134C67.5996 29.234 67.3996 29.334 67.1996 29.434C66.5996 29.734 66.2996 29.834 66.1996 29.534C66.0996 29.234 65.8996 29.134 65.7996 29.334C65.6996 29.534 65.2996 29.434 64.6996 29.234C64.2996 29.134 64.0996 29.034 63.9996 29.234C63.9996 29.234 63.7996 29.134 63.5996 29.134C63.5996 29.134 63.4996 28.834 63.7996 28.434C63.8996 28.034 63.9996 27.734 63.6996 27.934C63.5996 27.934 63.3996 27.834 63.2996 27.834C63.1996 27.834 63.0996 27.734 63.0996 27.734C62.9996 27.234 62.2996 27.134 62.1996 27.534C62.1996 27.534 62.1996 27.534 62.3996 27.534C62.3996 27.534 62.5996 27.534 62.5996 27.834C62.4996 28.234 62.2996 28.234 61.6996 28.134C60.6996 27.934 60.2996 27.634 60.5996 27.234C60.6996 27.034 60.5996 26.834 60.3996 26.734C60.1996 26.634 59.7996 26.734 59.5996 27.034C59.3996 27.234 59.0996 27.434 59.0996 27.234C59.0996 27.234 59.0996 27.034 59.1996 26.734C59.3996 26.534 59.3996 26.534 58.9996 26.434C58.5996 26.434 58.5996 26.434 58.4996 26.834C58.4996 27.034 58.2996 27.034 58.2996 27.034C58.0996 27.034 58.0996 27.034 58.0996 27.034C58.0996 26.834 57.6996 26.734 56.9996 26.734C56.3996 26.734 56.0996 26.734 56.1996 26.234C56.1996 25.534 55.9996 25.534 55.9996 26.034C55.8996 26.534 55.4996 26.834 54.9996 26.934C54.7996 26.934 54.4996 27.034 54.1996 26.934C53.8996 26.934 53.5996 26.834 53.3996 26.634C52.9996 26.434 52.4996 26.534 52.5996 26.734C52.5996 26.734 52.3996 26.734 52.0996 26.534C51.5996 26.134 51.5996 26.134 51.8996 26.534C52.1996 26.934 51.9996 27.234 51.7996 27.034C51.5996 27.034 51.5996 27.034 51.5996 27.334C51.5996 27.334 51.3996 27.334 51.1996 27.434C51.1996 27.434 51.1996 27.434 51.0996 26.934C51.2996 26.634 50.9996 26.434 50.5996 26.734C50.3996 26.734 50.1996 27.034 50.0996 27.334L49.8996 27.634C49.6996 27.734 49.4996 27.934 49.0996 28.034C48.5996 28.634 47.9996 28.634 48.0996 28.334L47.8996 27.634C47.5996 27.234 47.1996 27.634 46.7996 28.234C46.6996 28.534 46.5996 28.834 46.4996 28.634C46.3996 28.434 46.1996 28.534 45.7996 28.634C45.6996 28.934 45.5996 28.734 45.4996 28.534C45.4996 28.034 45.0996 28.134 45.0996 28.734C45.0996 29.234 45.0996 29.234 44.7996 28.634C44.6996 28.434 44.3996 28.334 44.3996 28.334C44.1996 28.434 44.2996 28.634 44.4996 29.034C44.6996 29.434 44.2996 29.634 43.7996 29.034C43.7996 29.534 43.5996 29.634 43.1996 29.334C42.8996 29.234 42.1996 29.334 42.2996 29.834C42.3996 30.034 42.0996 29.934 41.7996 29.834C41.4996 29.734 41.4996 29.734 41.4996 29.734C41.5996 29.934 41.3996 30.034 41.1996 30.134C41.1996 30.134 40.6996 30.434 40.5996 30.834C40.3996 30.934 40.1996 31.034 40.0996 31.134C39.8996 31.234 39.7996 31.334 39.6996 31.434C39.5996 31.234 39.1996 31.534 38.9996 31.634C38.7996 31.734 38.4996 31.734 38.3996 31.534C37.9996 31.334 37.9996 31.334 38.1996 31.634C38.2996 31.834 38.1996 31.934 37.9996 32.034C37.8996 31.834 37.4996 32.134 37.3996 32.234C37.1996 32.734 36.8996 32.634 36.3996 32.434C35.7996 32.034 35.7996 32.034 35.8996 32.534C35.9996 33.034 36.0996 33.034 35.6996 33.034C35.4996 33.034 35.2996 33.034 35.0996 33.134C34.9996 33.134 34.8996 33.234 34.7996 33.334C34.6996 33.434 34.5996 33.534 34.4996 33.634C33.9996 33.834 33.4996 33.934 33.4996 33.934C33.2996 33.734 33.2996 33.734 33.1996 34.234C33.1996 34.534 33.0996 34.734 32.5996 34.534C31.8996 34.534 31.8996 34.534 32.1996 35.034C32.1996 35.334 32.2996 35.634 32.0996 35.534C31.8996 35.434 31.5996 35.734 31.4996 35.934C31.3996 36.434 31.1996 36.334 31.0996 36.134C30.6996 35.834 30.5996 36.034 30.1996 36.634C30.0996 36.834 29.9996 36.934 29.9996 36.934C30.2996 36.834 30.2996 36.834 30.3996 37.234C30.4996 37.834 30.4996 37.834 29.7996 37.634L29.2996 37.534L29.5996 37.934C29.2996 37.634 28.9996 37.534 28.8996 37.634C28.7996 37.734 28.7996 38.034 28.9996 38.434L29.4996 38.934L28.5996 39.134C27.7996 39.234 27.7996 39.234 27.7996 39.734C27.8996 40.334 27.7996 41.034 27.4996 41.634C27.2996 42.234 26.8996 42.834 26.5996 42.934C26.2996 43.034 25.8996 42.734 26.2996 42.334C26.3996 42.134 26.4996 41.934 26.2996 41.634C26.1996 41.334 26.1996 41.334 25.8996 41.434C25.6996 41.834 25.2996 41.734 25.2996 41.134C25.3996 40.934 25.1996 40.834 24.8996 40.934C24.5996 41.034 24.5996 41.034 24.9996 41.234C25.1996 41.334 25.2996 41.634 25.2996 41.834C25.2996 41.834 24.9996 41.934 24.6996 41.534C24.0996 41.234 23.7996 41.234 23.9996 40.734C24.1996 40.234 24.0996 39.934 24.1996 39.734C23.9996 39.134 24.0996 38.834 24.2996 39.534C24.5996 39.934 25.1996 40.434 25.5996 40.134C25.6996 39.934 25.9996 39.834 26.1996 39.934C26.3996 40.034 26.3996 40.034 26.5996 39.634C26.6996 39.434 26.7996 39.234 26.9996 39.334C27.1996 39.434 27.1996 39.434 27.1996 39.434C27.2996 39.234 27.0996 39.134 26.6996 38.934C26.3996 39.034 26.2996 38.734 26.4996 38.834C26.5996 38.634 26.6996 38.434 26.4996 38.334C26.2996 38.234 26.1996 38.434 26.0996 38.634C26.2996 38.734 25.9996 38.834 25.8996 38.534C25.4996 38.334 25.4996 38.334 25.4996 38.334C25.4996 38.634 25.2996 38.734 24.9996 38.834C24.7996 38.934 24.4996 38.834 24.4996 38.734C24.2996 38.334 23.9996 38.634 23.6996 39.034C23.4996 39.534 23.2996 40.134 23.3996 40.434C23.6996 40.834 23.6996 40.834 23.2996 40.634C23.0996 40.534 22.8996 40.434 23.0996 39.934C22.9996 39.634 22.9996 39.634 22.6996 39.734C22.1996 39.834 22.1996 39.834 22.5996 39.434C22.6996 39.234 22.7996 38.934 22.5996 38.834C22.5996 38.834 22.6996 38.634 22.7996 38.334C23.0996 38.234 22.9996 37.834 22.8996 38.134C22.6996 38.034 22.3996 38.134 22.2996 38.434C22.0996 38.934 22.0996 38.934 21.5996 38.734C20.3996 37.934 20.1996 37.834 19.9996 38.334C19.5996 38.734 19.5996 38.734 20.1996 38.434C20.5996 38.034 20.7996 38.734 20.3996 39.134C20.5996 39.234 20.8996 39.634 21.5996 40.434C21.9996 40.634 22.1996 40.934 22.3996 41.034C22.2996 41.234 22.4996 41.334 22.9996 41.534C23.2996 41.334 23.6996 41.534 23.7996 42.134C24.1996 42.534 24.2996 42.834 24.0996 42.734C23.0996 42.934 22.6996 43.034 22.5996 42.734C22.4996 42.434 22.1996 42.334 21.8996 42.534C21.5996 42.734 21.2996 42.934 21.3996 42.634C21.3996 42.134 20.8996 41.934 20.6996 42.034L20.5996 42.134C20.3996 42.634 21.2996 43.134 21.9996 43.134C22.1996 43.234 22.3996 43.234 22.3996 43.534C22.3996 43.534 22.5996 43.834 22.7996 43.934C23.1996 44.034 23.1996 44.034 23.2996 43.834C22.8996 43.434 22.9996 43.234 23.7996 43.234C24.1996 43.334 24.4996 43.234 24.7996 43.034C25.6996 42.634 26.7996 43.534 26.4996 43.834C26.3996 44.034 25.9996 44.234 25.4996 44.234C24.9996 44.234 24.5996 44.234 24.4996 43.934C24.5996 43.734 23.7996 43.734 23.6996 44.234C23.5996 44.434 23.8996 44.534 24.3996 44.434C24.7996 44.534 25.0996 44.634 25.0996 44.634C25.0996 44.634 25.2996 44.934 25.1996 45.134C25.3996 45.434 25.3996 45.434 23.7996 45.034C22.6996 45.234 21.6996 44.734 21.2996 44.334ZM7.69962 57.734C7.69962 57.934 7.69962 57.934 7.69962 57.734V57.734ZM79.6996 40.534C79.6996 40.434 79.6996 40.434 79.6996 40.534V40.534ZM43.8996 29.334C43.7996 29.334 43.7996 29.334 43.8996 29.334C43.7996 29.334 43.7996 29.334 43.8996 29.334ZM12.4996 25.734C12.5996 25.634 12.5996 25.634 12.4996 25.734V25.734Z" fill="#1B335C"/>
</svg>
