<svg width="81" height="79" viewBox="0 0 81 79" fill="none" xmlns="http://www.w3.org/2000/svg">
<mask id="mask0_9385_8455" style="mask-type:alpha" maskUnits="userSpaceOnUse" x="0" y="0" width="81" height="79">
<path d="M27.3383 1.68355C27.2399 1.43959 27.2399 1.43959 26.9694 1.56157L26.6988 1.65915L27.0677 1.78114C27.3383 1.68355 27.3383 1.68355 27.3383 1.68355Z" fill="#13335F"/>
<path d="M19.8116 7.14825C20.033 6.97748 19.8854 6.78231 19.7378 6.56274C19.7378 6.56274 19.4919 6.73352 19.2705 6.8799C19.1968 7.27024 19.3443 7.4898 19.8116 7.14825Z" fill="#13335F"/>
<path d="M17.7708 8.6855C17.5986 8.49033 18.0413 8.14878 18.2873 7.97801C18.73 7.63646 18.976 7.46569 18.5824 7.44129C18.4349 7.24612 17.9676 7.58767 17.6724 8.14879C17.3281 8.41714 17.1067 8.58792 16.9838 8.66111C16.8608 8.7343 16.8116 8.6855 16.8362 8.49033C16.6886 8.27077 16.6886 8.27077 16.6886 8.27077C16.4673 8.46594 16.2459 8.63671 16.4181 8.83188C16.7624 9.19782 17.5003 9.22222 17.7708 8.6855Z" fill="#13335F"/>
<path d="M8.00629 16.0777C8.32602 15.5897 8.27683 15.1994 7.90791 15.3214L7.39142 16.0777C7.29304 16.712 7.51439 16.8339 8.00629 16.0777Z" fill="#13335F"/>
<path d="M7.11914 17.0054C7.11914 16.9806 7.14401 16.9806 7.14401 16.9558C7.11914 16.9806 7.11914 16.9806 7.11914 17.0054Z" fill="#13335F"/>
<path d="M6.99764 17.1993C6.97305 17.2481 6.92386 17.3213 6.89926 17.3701C6.94845 17.2969 7.02224 17.1505 7.12062 17.0042C7.09602 17.0285 7.04683 17.1017 6.99764 17.1993Z" fill="#13335F"/>
<path d="M6.85107 17.4675C6.7281 17.6626 6.80188 17.5651 6.90026 17.3943C6.87566 17.4187 6.85107 17.4675 6.85107 17.4675Z" fill="#13335F"/>
<path d="M1.31681 29.8611C1.46438 29.7391 1.58736 29.4463 1.63655 29.2024C1.68574 28.9584 1.68574 28.7144 1.56276 28.69C1.31681 28.6413 1.09546 28.7388 0.947889 28.9584C0.80032 29.1536 0.75113 29.4707 0.824915 29.7879C0.824915 29.7879 1.07086 29.8367 1.31681 29.8611Z" fill="#13335F"/>
<path d="M1.51324 34.3015C1.53783 34.0087 1.53783 34.0087 1.29188 34.0087C1.04593 33.9843 0.775388 33.9843 0.750793 34.2771C0.972147 34.5698 1.24269 34.5698 1.51324 34.3015Z" fill="#13335F"/>
<path d="M0.677381 35.1299C0.677381 34.8371 0.431432 34.8371 0.185484 34.8127C0.185484 34.8127 0.185484 34.8127 0.160889 35.1055L0.406838 35.3983L0.677381 35.1299Z" fill="#13335F"/>
<path d="M0.527915 40.6924L0.55251 40.9851L0.773864 40.668C0.749269 40.3752 0.749269 40.3752 0.749269 40.3752C0.503321 40.3996 0.503321 40.3996 0.527915 40.6924Z" fill="#13335F"/>
<path d="M1.68473 47.3041C1.51256 46.743 1.16823 46.2306 0.971474 46.5722C0.971474 46.5722 0.922284 46.6698 0.897689 46.7918C0.848499 46.9137 0.823904 47.0845 0.873094 47.2309C1.26661 47.7432 1.26661 47.7432 0.627145 47.3041C0.307412 47.0845 0.135248 46.9625 0.0860578 47.0113C0.036868 47.0601 0.0860578 47.2797 0.209032 47.7188C0.282817 48.0116 0.209032 48.6703 0.209032 48.6703C-0.0369166 48.7435 -0.0369166 48.7435 0.0614629 49.0362C0.135248 49.329 0.381196 49.2558 0.454981 48.5971C0.381196 48.3043 0.627145 48.2311 0.946879 48.4507C1.68473 49.1582 2.07824 48.7191 1.68473 47.3041Z" fill="#13335F"/>
<path d="M1.31656 49.5981C1.31656 49.5981 1.31656 49.5981 1.41494 49.8909L1.75927 50.086L1.90684 49.7201C1.78386 49.4273 1.56251 49.5249 1.31656 49.5981Z" fill="#13335F"/>
<path d="M3.52842 51.2807C2.83976 50.9392 2.12651 51.2075 2.22489 51.4759C2.10191 51.8418 2.44624 52.037 2.56922 51.6467C3.03652 51.4515 3.28247 51.3539 3.38085 51.6223C3.6022 52.159 3.6022 52.159 3.72518 51.793C3.65139 51.5491 3.77437 51.1831 3.52842 51.2807Z" fill="#13335F"/>
<path d="M2.93881 54.4274C3.06179 54.6957 3.06179 54.6957 3.43071 54.8421C3.43071 54.8421 3.65206 54.7201 3.52909 54.4518C3.62747 54.0858 3.28314 53.9394 2.93881 54.4274Z" fill="#13335F"/>
<path d="M5.54574 55.0624L5.64412 54.6964C5.52114 54.4525 5.29979 54.5744 5.29979 54.5744C5.07844 54.6964 5.07844 54.6964 5.20141 54.9404C5.20141 54.9404 5.32438 55.1844 5.54574 55.0624Z" fill="#13335F"/>
<path d="M4.04474 57.6003C4.04474 57.6003 3.82338 57.7223 3.97095 57.9907L4.11852 58.259C4.33988 58.1126 4.41366 57.7223 4.41366 57.7223C4.26609 57.4783 4.04474 57.6003 4.04474 57.6003Z" fill="#13335F"/>
<path d="M5.10484 58.3557C5.54755 58.0874 5.37538 57.8434 5.00646 57.7214C4.78511 57.8434 4.56375 57.9898 4.56375 57.9898C4.71132 58.2581 4.88349 58.5021 5.10484 58.3557Z" fill="#13335F"/>
<path d="M4.83191 58.8922C4.83191 58.8922 5.15164 59.4046 5.32381 59.6485C5.8157 60.4048 6.03706 60.234 5.91408 59.5997C5.93868 59.2338 5.10245 58.3555 4.83191 58.8922Z" fill="#13335F"/>
<path d="M16.3931 70.7984C16.1472 70.6277 15.9996 70.8472 15.8766 71.0424C15.8766 71.0424 15.9258 71.0912 16.0242 71.14C16.1226 71.2132 16.2456 71.2864 16.3685 71.3595C16.7621 71.3352 16.885 71.14 16.3931 70.7984Z" fill="#13335F"/>
<path d="M19.613 73.6038C19.3425 73.4574 19.0719 73.3111 18.9489 72.9451C18.6784 72.2132 18.4324 72.0669 18.2849 72.2864C18.1619 72.506 18.1619 72.506 18.4079 72.6524C18.6784 72.7987 19.0719 73.3355 19.0965 73.921L19.6868 74.7992L19.9081 74.3357C20.1295 73.8966 19.9819 73.5306 19.613 73.6038Z" fill="#13335F"/>
<path d="M31.4449 77.9462C31.4449 77.9462 31.7401 77.995 32.0352 78.0437C32.0352 78.0437 32.0844 77.7998 32.109 77.5314C32.109 77.5314 31.8138 77.4826 31.5187 77.4338C31.5187 77.4582 31.4941 77.7022 31.4449 77.9462Z" fill="#13335F"/>
<path d="M42.562 77.3362C42.5866 77.5801 42.5866 77.5801 42.8818 77.5557L43.1769 77.5313L42.8572 77.3118C42.562 77.3362 42.562 77.3362 42.562 77.3362Z" fill="#13335F"/>
<path d="M64.4749 69.1878C64.2535 69.383 64.4257 69.5538 64.4257 69.5538C64.5979 69.749 64.5979 69.749 64.8192 69.5538C65.0406 69.3586 65.2619 69.1634 65.0898 68.9927C65.0898 68.9927 64.6962 68.9927 64.4749 69.1878Z" fill="#13335F"/>
<path d="M75.3472 55.5751C75.2242 55.5263 75.1505 55.5751 75.0767 55.6239C75.0275 55.6727 74.9783 55.7459 74.9783 55.7459C74.8553 56.0143 75.1013 56.1119 75.3226 56.2094C75.3226 56.2094 75.3226 56.2094 75.4456 55.9411C75.4456 55.9411 75.4702 55.8679 75.4702 55.7947C75.4948 55.6971 75.4702 55.6239 75.3472 55.5751Z" fill="#13335F"/>
<path d="M75.912 55.4776C75.8125 55.428 75.8374 55.4528 75.912 55.4776V55.4776Z" fill="#13335F"/>
<path d="M76.1574 55.5749C76.059 55.5505 75.9852 55.5017 75.9114 55.4773C76.1574 55.5749 76.0344 55.8433 75.9114 56.1116C75.7885 56.38 76.0344 56.4776 76.2558 56.5752C76.4771 56.6728 76.5017 56.6728 76.846 55.8433C76.8214 55.209 76.8214 55.209 76.8214 55.209C76.7477 55.5017 76.4033 55.6725 76.1574 55.5749Z" fill="#13335F"/>
<path d="M78.4454 56.063C78.4205 56.0878 78.4205 56.1126 78.4205 56.1126C78.4454 56.0878 78.4454 56.0878 78.4454 56.063Z" fill="#13335F"/>
<path d="M78.6675 55.5505C78.692 55.5017 78.692 55.4773 78.7165 55.4529C78.692 55.4773 78.6676 55.5505 78.6431 55.6481C78.6431 55.5749 78.6675 55.5505 78.6675 55.5505Z" fill="#13335F"/>
<path d="M78.6914 55.4525C78.7159 55.428 78.7159 55.428 78.6914 55.4525V55.4525Z" fill="#13335F"/>
<path d="M78.5431 55.8439C78.5677 55.7707 78.5923 55.7219 78.6169 55.6487C78.5677 55.7463 78.5185 55.8926 78.4447 56.0634C78.4693 56.0146 78.4939 55.9658 78.5431 55.8439Z" fill="#13335F"/>
<path d="M76.6002 52.964C76.6986 52.6957 76.7969 52.4273 76.4526 52.6225C76.4526 52.6225 76.2067 52.5493 76.1083 52.8177C76.0099 53.086 76.2559 53.1592 76.2559 53.1592C76.428 53.5008 76.5018 53.2324 76.6002 52.964Z" fill="#13335F"/>
<path d="M77.954 49.1342C77.708 49.0854 77.954 49.1342 78.1999 49.183C78.3967 49.2318 78.4212 49.2318 78.4458 49.2318C78.1999 49.183 77.954 49.1342 77.954 49.1342Z" fill="#13335F"/>
<path d="M2.47226 30.6425C2.47226 30.6177 2.47226 30.5929 2.49713 30.5681C2.49713 30.5929 2.49713 30.6177 2.47226 30.6425Z" fill="#13335F"/>
<path d="M75.5917 56.8935C75.5917 56.8687 75.6165 56.8191 75.6165 56.8191C75.6165 56.8191 75.6165 56.8439 75.5917 56.8935Z" fill="#13335F"/>
<path d="M75.6185 56.8187C75.6431 56.7942 75.6431 56.7942 75.6185 56.8187V56.8187Z" fill="#13335F"/>
<path d="M75.5675 56.9155C75.5675 56.8916 75.5675 56.8916 75.5915 56.8916C75.5915 56.9155 75.5675 56.9155 75.5675 56.9155Z" fill="#13335F"/>
<path d="M2.4964 30.5683C2.52085 30.4463 2.52085 30.4463 2.4964 30.5683V30.5683Z" fill="#13335F"/>
<path d="M29.0103 2.68378C29.0103 2.68378 29.0349 2.68378 29.0595 2.65938C28.9611 2.58619 28.9611 2.56179 29.0103 2.68378Z" fill="#13335F"/>
<path d="M78.5439 47.4747C78.7898 47.5235 78.7898 47.5235 78.839 47.2307L78.8882 46.938L78.5931 47.1819C78.5439 47.4747 78.5439 47.4747 78.5439 47.4747Z" fill="#13335F"/>
<path d="M80.1671 47.1087C80.1179 47.4014 80.3639 47.4502 80.6098 47.4746C80.6098 47.4746 80.6098 47.4746 80.659 47.1819L80.4377 46.8403L80.1671 47.1087Z" fill="#13335F"/>
<path d="M77.3625 46.7188C77.3133 46.9871 77.5593 47.0359 77.5593 47.0359C77.5593 47.0359 77.5593 47.0359 77.6085 46.7676C77.6577 46.4992 77.6823 46.2065 77.6823 46.2065C77.4609 46.1577 77.4117 46.426 77.3625 46.7188Z" fill="#13335F"/>
<path d="M79.7011 46.7441C79.4552 46.7197 79.4552 46.7197 79.406 47.0124C79.406 47.0124 79.3568 47.3052 79.6027 47.3296C79.8487 47.3784 79.8979 47.0612 79.8979 47.0612C79.9471 46.7685 79.9471 46.7685 79.7011 46.7441Z" fill="#13335F"/>
<path d="M77.8806 44.7916C77.856 45.0599 78.102 45.1087 78.3479 45.1331C78.5939 45.1575 78.5939 45.1575 78.643 44.8648C78.643 44.8648 78.6676 44.572 78.4217 44.5476C78.2987 44.5476 78.1511 44.5964 78.0528 44.6696C77.9544 44.7184 77.8806 44.7916 77.8806 44.7916Z" fill="#13335F"/>
<path d="M79.5519 43.474C79.601 42.8885 79.601 42.8885 78.7894 43.4252C78.2483 43.6692 78.4943 43.9863 79.2567 44.0351C79.5027 44.0595 79.5027 44.0595 79.5519 43.474Z" fill="#13335F"/>
<path d="M80.633 42.327C80.633 42.0342 80.3871 42.0342 80.3871 42.327C80.1411 42.327 80.1411 42.327 79.8706 42.327C79.6247 42.0342 79.6001 42.5953 80.092 43.2053C80.5347 44.1079 80.7806 44.1323 80.8298 43.5468C80.8544 43.254 80.879 42.9369 80.6084 42.9369C80.3625 42.9369 80.3625 42.9369 80.6084 42.6441C81.1249 42.6441 81.1249 42.3514 80.633 42.327Z" fill="#13335F"/>
<path d="M77.1913 46.353C76.9453 46.3286 76.478 46.0358 76.2567 45.7674C75.568 45.2307 75.5926 45.0112 75.8632 44.5964C75.8878 44.3768 76.1337 44.4012 76.601 44.6696C76.847 44.694 76.8224 44.9136 76.5764 45.1331C76.3059 45.3283 76.5518 45.3527 76.7978 45.3771C77.5602 45.4747 78.421 43.5962 77.6832 43.5718C77.511 43.5718 77.3143 43.5474 77.2405 43.5474C77.3881 43.3766 77.511 43.2058 77.511 43.0838C77.4864 43.0107 77.4618 42.9375 77.4372 42.8643L77.4618 42.8399C77.4864 42.8155 77.4864 42.7911 77.511 42.7667C77.5848 42.8399 77.6586 42.9375 77.7816 43.0838C78.2489 43.6694 78.544 43.401 78.0767 42.5471C77.8554 41.6933 78.3473 41.7177 78.8638 42.2788C79.1097 42.2788 79.1097 42.5715 79.1097 42.2788C79.1097 42.2788 79.1097 41.986 78.8638 41.6933C78.3719 41.4005 78.3719 41.4005 78.8638 41.4005C79.6508 41.1321 80.1427 40.5222 79.6262 40.2539C79.2327 40.2539 78.9867 40.2783 78.8638 40.2783C79.3802 40.5466 79.3802 40.8394 78.6178 40.8394C78.4702 40.8394 78.1997 40.9614 77.9537 41.1077C77.9537 40.9858 77.9537 40.8394 77.9537 40.693C77.9291 39.7416 77.8554 39.0585 78.1013 39.0341C78.3473 38.8877 78.3719 38.4242 78.2735 37.9118C78.1751 37.3995 78.0029 36.8872 77.8308 36.6676C77.5602 36.4725 77.511 36.2285 77.7324 35.9601C77.9291 35.6918 77.8554 35.2282 77.757 34.7403C77.4372 34.3256 77.6094 34.0572 77.8554 33.984C78.3227 33.8864 78.1259 32.935 77.2159 32.4227C76.847 32.0323 76.7978 31.8128 77.0191 31.7396C77.0191 31.7396 77.4864 31.6176 77.6586 31.3004C78.0767 30.9345 78.0767 30.9345 77.3635 31.1297C77.0437 31.3492 76.7732 31.3004 76.6256 31.1541C76.478 31.0077 76.478 30.7637 76.6748 30.5929C76.9208 30.5198 76.9208 30.5198 76.9945 30.7393C77.4618 30.5929 77.4618 30.5929 76.9945 29.983C76.601 29.6171 76.5272 29.3731 76.6748 29.0804C76.8962 29.0072 76.724 28.5437 76.6502 28.3241C76.5518 28.1045 76.478 27.885 76.6994 27.7874C76.9208 27.6898 77.3143 27.2751 77.0929 26.8359C76.9945 26.6164 76.9945 26.6164 76.7732 26.7139C76.6502 27.0311 75.9861 26.7871 76.3551 26.3724C76.2567 26.1528 76.1583 25.9333 75.937 26.0308C75.7156 26.1284 75.7156 26.1284 75.8386 25.8113C76.2813 25.6161 76.1829 25.3721 75.9616 25.4941C75.7402 25.5917 75.2975 25.2746 75.1991 25.055C75.1007 24.8354 74.9778 24.6159 74.7564 24.7378C74.658 24.5183 74.658 24.5183 74.9778 24.0791C75.2975 23.64 75.2975 23.64 75.0761 23.762C74.5351 23.7864 74.4121 23.5912 74.7072 23.1277C74.7072 23.1277 74.6826 23.0789 74.5596 22.9813C74.4367 22.8837 74.2153 22.7373 73.7972 22.5422C73.7234 22.4934 73.6496 22.469 73.5759 22.4446C73.5021 22.2494 73.4529 22.0786 73.5759 22.0055C73.7972 21.8835 73.4283 21.7615 73.084 21.6639C72.9856 21.6639 72.9118 21.6639 72.838 21.6639C72.838 21.6151 72.8134 21.5419 72.8134 21.4931C72.7396 21.3711 72.6412 21.2492 72.5921 21.176C72.5921 21.1028 72.6166 21.054 72.6412 20.9564C72.9118 20.4441 72.7642 20.2001 72.3953 20.1269C72.2477 20.0294 72.1493 19.9562 72.0756 19.9074C72.1002 19.8098 72.1002 19.7366 72.0756 19.6634C72.0756 19.6634 71.9526 19.0535 71.8542 18.468C71.7312 18.2972 71.6329 18.1264 71.5591 17.9801C71.4853 17.8337 71.4115 17.6873 71.3623 17.5409C71.2639 17.2726 71.2393 17.0286 71.2393 16.8334C71.2639 16.4431 71.2639 16.4431 70.6982 16.5651C70.5753 16.5895 70.4769 16.6139 70.4031 16.6139C70.4277 16.4919 70.4277 16.3455 70.4031 16.2235C70.4523 16.1503 70.4769 16.0772 70.5507 15.9796C70.7474 15.4429 70.7474 15.0525 70.1818 14.7842C69.985 14.5646 69.5915 14.1498 69.7882 13.9791C69.5915 13.7595 69.3947 13.5643 69.198 13.7351C68.829 14.1011 68.829 14.1011 69.0012 13.5399C69.1734 13.3692 69.1734 12.9788 68.952 12.7837C68.7552 12.5885 68.3371 12.1981 68.5093 12.003C68.2879 11.8078 67.8698 11.3931 67.4271 11.0271C67.0336 11.0271 66.3941 10.466 66.3941 10.466C66.222 10.3196 66.0498 10.1976 65.9022 10.222C66.0006 10.1489 66.0744 10.0757 66.099 10.0269C66.1974 9.8561 66.0744 9.68533 65.6809 9.58774C65.6563 9.56335 65.6317 9.56335 65.6071 9.53895C65.5579 9.36818 65.4841 9.27059 65.3857 9.39257H65.3612C65.2874 9.36818 65.2382 9.36818 65.189 9.41697C64.7217 9.41697 64.3036 8.85585 64.2298 8.51431C64.279 7.92879 64.033 7.75802 63.5165 8.02638C63.6887 7.2213 63.1968 6.90415 62.9263 7.34328C62.6557 7.78242 62.5081 7.97759 62.2868 7.83121C62.2868 7.83121 62.1884 7.46526 62.3114 7.2457C62.7049 6.587 62.7049 6.587 62.1884 6.87975C61.6719 7.17251 61.18 6.87975 61.6965 6.587C61.8195 6.36743 61.9425 6.14787 61.5735 6.22105C61.0571 5.9283 60.8111 5.78192 60.9341 5.56235C61.0571 5.34279 60.6881 5.41598 60.2946 5.51356C59.2862 5.56235 58.6713 5.53796 58.6222 4.95245L58.9419 4.26935C59.3108 4.17177 58.5976 3.56186 57.5892 3.65944C57.0481 3.41548 56.6792 3.56186 56.4086 3.43988L56.0397 3.56186C55.6708 3.68384 55.3264 3.83022 55.0559 3.73263C54.441 3.78142 54.2443 3.46427 54.5886 3.2935C54.7608 2.80557 54.7608 2.80557 54.7608 2.80557C54.4902 2.70799 54.1951 2.6104 54.1951 2.6104C54.1213 2.85437 54.1213 2.85437 53.8507 2.75678C53.654 2.41523 53.2851 2.58601 53.4326 3.14712C53.5556 3.73263 53.5556 3.70824 53.1621 3.07393C52.9653 2.75678 52.6702 2.6592 52.6702 2.6592C52.5964 2.90316 52.0553 2.73238 51.5634 2.34204C50.9486 1.80533 50.1861 1.48817 49.5221 1.46378C48.858 1.43938 48.3169 1.65895 48.0955 2.14687C48.0218 2.6592 47.7512 2.6104 47.8496 1.85412C47.9234 1.3418 47.6282 1.3174 46.7674 1.19542C45.9066 1.07344 45.3409 1.04904 45.3655 0.805078C45.3655 0.805078 45.3655 0.805078 45.0704 0.780681C45.0704 0.780681 44.7752 0.756285 44.7752 1.00025C44.7506 1.51257 44.7506 1.51257 44.185 1.46378C43.6193 1.43938 43.6193 1.43938 43.9144 1.19542C43.9144 0.951455 43.939 0.683096 43.939 0.683096C43.939 0.439133 43.6439 0.683096 43.3487 0.927059C43.0536 1.293 42.6355 1.41498 42.3157 1.36619C42.0452 1.39059 41.8239 1.19542 41.9468 0.951455C42.2174 0.439133 41.6517 0.19517 40.2006 0.243963C39.3398 0.292755 39.0446 0.317152 39.0938 0.829474C39.1184 1.07344 39.389 1.07344 39.389 1.07344C39.6841 1.04904 39.6841 1.04904 39.6841 1.04904C39.7087 1.56136 38.8971 1.61016 38.5527 1.12223C38.5527 1.12223 38.4052 1.12223 38.233 1.14663C38.0608 1.17102 37.8395 1.19542 37.6919 1.21981C37.446 1.51257 37.4214 1.24421 37.3476 0.756285C37.5689 0.219567 37.2492 0 37.2492 0C36.9541 0.0243963 36.6589 0.0731889 36.6589 0.0731889C36.7081 0.317152 36.413 0.341548 35.8227 0.439133C34.9619 0.585511 34.3962 0.683096 34.4454 0.927059C34.4946 1.17102 34.224 1.21981 33.8797 1.04904C33.5354 0.85387 33.314 1.17102 32.8713 1.80533C32.7237 2.0005 32.5762 2.22006 32.4532 2.43963L32.6008 1.87851C32.6746 1.07344 31.8383 1.293 31.7645 2.09808C31.6416 2.6592 31.6416 2.6592 31.2235 2.24446C30.8791 2.07368 30.8791 2.07368 30.4118 2.48842C30.3134 3.04954 30.0429 3.14712 29.8707 2.6592C29.6986 2.17127 29.6248 1.9517 29.428 2.26885C29.2805 2.51282 29.1083 2.6348 29.0099 2.68359C29.0837 2.75678 29.2067 2.90316 29.4034 3.09833C29.8461 3.48867 29.8461 3.48867 29.2313 3.41548C28.8869 3.2691 28.518 3.14712 28.4196 2.90316C28.3213 2.6592 28.2229 2.43963 27.9523 2.53721C27.485 2.17127 27.3129 2.51282 27.4112 2.75678C27.608 3.22031 27.608 3.22031 27.1407 2.85437C26.6734 2.48842 26.6734 2.48842 26.8702 2.95195C26.9685 3.19591 26.698 3.2935 25.665 3.75703C25.2715 3.9278 25.0255 4.04978 24.8534 4.14737C24.7058 4.22056 24.632 4.26935 24.632 4.26935C24.755 4.48892 24.755 4.48892 24.6074 4.85486C24.7304 5.07443 24.4845 5.19641 23.845 5.2452L23.1071 5.65994C22.9842 6.02588 22.0004 5.97709 20.869 5.83071C20.5247 5.85511 20.2049 5.85511 19.8606 5.87951L20.3033 6.51381C20.5985 6.92855 20.746 7.14811 20.1312 7.2457C19.6639 7.56285 19.2211 7.9044 19.2211 7.9044C19.2457 8.17276 18.803 8.61189 18.2619 8.95344C17.7209 9.27059 17.1306 9.56335 16.86 9.46576C16.6879 9.27059 16.2698 9.63654 15.8517 10.0269C15.4335 10.4172 15.04 10.8076 14.4497 11.0027C14.0562 11.4175 13.8595 11.6126 13.8595 11.9786C13.8103 11.9298 13.7611 11.881 13.6627 11.8078C13.097 11.6614 12.8757 11.881 13.0724 12.4177C13.0724 12.7837 12.7035 12.8324 12.31 12.5153C11.7197 12.3933 11.7197 12.4177 11.9411 12.9544C12.3346 13.6619 12.187 14.2474 11.6213 14.1498C11.4246 14.0035 11.2524 14.223 11.4492 14.3694C11.4738 14.7354 11.4738 14.7354 11.1048 14.8085C10.9081 14.6622 10.7113 14.8817 10.2194 15.5648C9.3832 16.7115 9.62914 16.8578 10.2194 16.9066C10.5883 16.809 10.8097 16.9554 10.8097 16.9554C10.6375 17.175 10.2932 17.2726 10.0719 17.1262C9.8505 16.9798 9.70293 17.2238 9.40779 17.6873C9.08806 18.1508 8.10426 18.8583 7.66155 18.6144C7.4402 18.4924 7.21885 18.3704 7.07128 18.6144C6.92371 18.8583 6.70235 18.7364 6.25964 18.5168C6.18586 18.1508 5.93991 18.0289 6.11208 18.7851C5.96451 19.0535 6.28424 19.5414 6.53019 19.639C6.89911 19.4926 6.75154 19.761 6.62857 20.005C6.25964 20.1513 6.35802 20.5173 6.50559 20.2489C6.80073 20.2245 6.80073 20.6393 6.65316 21.176C6.50559 21.7371 6.16127 22.4202 5.79234 23.0301C5.59558 23.5424 5.37423 24.0791 5.27585 24.3475C5.17747 24.6159 5.07909 24.8842 5.07909 24.8842C4.83314 24.811 4.73476 25.0794 4.90693 25.4209C5.0545 25.7625 4.73476 25.9577 4.48881 25.8845C3.67718 25.9333 3.33285 27.0555 3.35745 27.9338C3.50502 28.4217 3.43123 29.2024 3.33285 29.8611C3.23447 30.5198 3.0869 31.0809 2.96393 31.0565C2.71798 31.0077 2.44744 30.9833 2.52122 30.6905C2.52122 30.7637 2.49663 30.8369 2.47203 30.9833C2.37365 31.5444 2.34906 31.8372 2.59501 31.8616C2.57041 32.0567 2.34906 33.3009 2.1277 33.5205C2.10311 33.8133 2.07851 34.0816 2.32446 34.106C2.84096 34.1548 2.79177 34.6915 2.52122 34.9599C2.25068 35.2282 2.25068 35.521 2.22608 35.7894V36.0821C1.98013 36.0821 1.98013 36.0821 2.20149 36.6432C2.32446 36.936 2.37365 37.2043 2.42284 37.4239C2.44744 37.6435 2.47203 37.7655 2.47203 37.7655C2.22608 38.0582 2.47203 38.3266 2.74258 38.5949C2.98852 38.5949 3.01312 38.8633 2.49663 38.8877C2.25068 38.9121 1.73419 38.9365 1.73419 38.9365C1.48824 38.9609 1.46364 38.9609 1.75878 39.2292C2.00473 39.2048 2.27527 39.4732 2.27527 39.4732C2.54582 39.7416 2.10311 40.5954 1.58662 40.6686C1.34067 40.693 1.31607 40.693 1.88175 41.2053C2.44744 41.7177 2.49663 41.986 2.57041 42.5471C2.49663 42.9863 2.66879 43.523 2.89015 43.9133C3.06231 44.2061 3.30826 44.4256 3.50502 44.4012C3.5788 44.4744 3.62799 44.5476 3.70178 44.6208C3.70178 44.6452 3.65259 44.694 3.55421 44.7916C3.45583 44.8892 3.28366 44.9868 3.01312 45.0599C2.52122 45.1575 2.52122 45.1575 2.69339 45.987C2.89015 46.231 3.01312 46.4993 3.1115 46.6701C3.20988 46.8165 3.28366 46.9141 3.35745 46.9385L3.38204 46.9629C3.48042 47.4508 3.80016 47.6216 3.87394 47.8411L4.16908 48.0119C4.24286 48.0363 4.29205 48.0851 4.36584 48.1095C4.29205 48.1339 4.19367 48.1583 4.09529 48.2071C3.28366 48.1583 3.25907 48.1583 3.38204 49.3293C3.48042 49.5977 3.75097 50.4027 4.09529 50.5735C4.538 51.0126 4.39043 51.3542 4.26746 51.7201C4.14448 52.0861 4.14448 52.0861 4.14448 52.0861C4.43962 52.1105 4.98071 52.2569 5.4972 52.452C5.54639 52.4764 5.59558 52.4764 5.64477 52.5008C5.69396 52.8424 5.81694 53.1595 5.9891 53.4035C6.03829 53.4767 6.08748 53.5499 6.16127 53.5986C5.9891 53.5986 5.89072 53.4035 5.79234 53.1839C5.66937 52.9399 5.66937 52.9399 5.44801 53.0375C5.22666 53.1351 4.75936 53.3547 4.75936 53.3547C4.538 53.4523 4.63638 53.7206 5.00531 53.867C5.34963 54.0134 5.71856 54.1354 5.93991 54.0378C5.93991 54.0378 5.93991 54.0378 6.18586 54.5257C6.30883 54.7697 6.43181 55.0136 6.87452 54.7697C6.89911 54.8917 6.9729 55.038 7.07128 55.2088C6.9729 55.3064 6.84992 55.404 6.70235 55.4772C6.25964 55.7211 6.03829 55.8431 6.40721 55.9651C6.55478 56.2091 6.67776 56.453 6.481 56.575C6.25964 56.697 6.18586 57.0873 6.55478 57.2093C7.14506 57.1849 7.4402 57.6484 7.02209 57.9412C6.60397 58.2095 6.75154 58.4535 7.34182 58.4291C7.48939 58.6731 8.17805 59.2342 8.84211 60.1369C9.21103 60.7224 9.53076 61.2103 9.77671 61.5762C10.0227 61.9422 10.244 62.2349 10.367 62.4789C10.6375 62.9424 10.6867 63.1864 10.5883 63.4548C10.3916 63.6255 10.5883 63.8451 10.7851 63.284C10.9573 63.1376 11.1048 62.9912 11.4 63.2108C11.4492 63.284 11.5229 63.3572 11.5967 63.4304C11.5967 63.4547 11.6213 63.4548 11.6213 63.4548C11.4738 63.3816 11.3508 63.5035 11.3508 63.5035C11.154 63.6743 11.154 63.6743 11.3508 63.8939C11.3508 63.8939 11.5475 64.0891 11.7197 63.9183V63.5767C11.7689 63.6499 11.8427 63.6987 11.8919 63.7719C11.7689 63.9671 12.1132 64.333 12.31 64.5282C12.5067 64.7234 12.7281 64.9185 12.6789 64.5282C12.7281 64.4062 12.8019 64.2842 12.8511 64.1866C12.8757 64.2598 12.9003 64.3574 12.9003 64.4794C12.9003 64.699 13.0232 64.7722 13.3184 64.7965C13.22 65.0161 13.1708 65.1869 13.1708 65.3577C13.1954 65.6016 13.343 65.8456 13.7857 66.2115C14.2038 66.5775 14.4743 67.1386 14.3268 67.3338C14.3268 67.3338 14.3268 67.3338 14.9416 67.4801C15.163 67.6509 15.3843 67.8217 15.4581 68.212C15.6795 68.3828 15.9008 68.5536 16.073 68.3584C16.4419 68.3096 16.4419 68.3096 16.5403 68.7C16.7617 68.8707 17.0814 69.4074 17.6963 69.505C17.9422 69.6514 18.4095 69.9686 18.2865 70.1881C18.2865 70.1881 18.5325 70.3345 18.7784 70.4809C18.7784 70.4809 18.8522 70.5053 18.9752 70.5541C19.0982 70.6029 19.2703 70.6517 19.4671 70.7492C19.8606 70.8956 20.3771 71.1396 20.8936 71.4079C21.3855 71.6763 21.779 71.8715 22.0496 72.0178C22.1479 72.1886 22.2463 72.3594 22.3201 72.5302L22.4431 72.2862C22.5415 72.3838 22.5906 72.457 22.5415 72.5302C22.4431 72.7497 22.4431 72.7497 22.812 72.6521C23.4269 72.6521 23.7958 72.5302 23.9434 72.8717C24.1155 73.2133 24.1155 73.2133 24.3615 73.3109C24.3615 73.3109 24.632 73.4084 25.1485 73.628C25.5912 74.0671 25.8618 74.1647 25.9356 73.9208C25.9847 73.7744 26.1569 73.6036 26.3537 73.4328C26.5012 73.5548 26.7718 73.6524 27.0423 73.75C27.0915 73.7744 27.1407 73.7744 27.1653 73.7988C27.1653 73.7988 27.1653 73.7988 27.1653 73.8232C27.1161 73.9939 27.1899 74.2379 27.3375 74.4575C27.485 74.677 27.731 74.8966 27.9769 75.0674C28.4688 75.4089 29.0345 75.5553 29.1329 75.1894C29.1821 74.9942 29.2313 74.7746 29.2559 74.7258C29.3542 75.2138 29.551 75.2869 29.8707 74.9942C29.9199 75.043 29.9937 75.0918 30.0183 75.165C30.1167 75.2382 30.2151 75.3113 30.3134 75.3601C30.3134 75.4089 30.2888 75.4577 30.2888 75.5065C30.4118 76.0432 30.4118 76.0432 30.7562 75.6285C30.8299 75.6773 30.9037 75.7017 30.9775 75.7505C31.371 75.9213 31.8629 76.0676 32.4286 76.1652C33.56 76.336 34.3962 76.4336 34.3716 76.6775C34.5438 77.0923 35.8473 77.1411 36.6589 77.0191C36.6835 77.1411 36.7327 77.2387 36.8803 77.2387C37.1262 77.2631 37.1016 77.507 37.077 77.9949C36.8065 78.2145 36.8065 78.4585 37.323 78.0193C37.5689 78.0437 37.8395 77.5558 37.8395 77.3118C37.6181 77.0679 37.8395 77.0679 38.0854 77.0679C38.2822 77.263 38.4789 77.1411 38.4052 77.0923C38.7003 77.1655 39.0692 77.1655 39.4627 77.1655C40.0284 76.8971 40.3236 77.1411 40.3236 77.385C40.3482 77.8973 41.5287 77.8242 42.2912 76.9947C42.8322 76.6775 43.1028 76.6531 43.1274 76.8971C43.1274 76.8971 43.2012 77.4094 43.5209 77.6046C43.8898 78.0681 43.8898 78.0681 43.7668 77.3118C43.6931 77.1899 43.6685 77.0679 43.6685 76.9459C43.8406 77.0435 44.0866 77.0923 44.3079 77.0923C44.3817 77.4826 44.4309 77.4582 45.1933 77.0923C45.7098 76.7507 45.9804 76.7019 46.3247 76.8971C46.3739 77.1411 46.9396 77.0191 47.2347 76.9459C47.5053 76.8727 47.8004 76.8239 47.8496 77.0679C47.9234 77.3118 48.3415 77.751 48.9072 77.5802C49.2023 77.507 49.2023 77.507 49.1285 77.263C48.7842 77.0923 49.2023 76.458 49.6204 76.8727C49.891 76.7995 50.1861 76.7019 50.1123 76.458C50.0385 76.214 50.0385 76.214 50.3829 76.3604C50.555 76.8483 50.8256 76.7507 50.7518 76.5068C50.678 76.2628 51.1453 75.8481 51.4159 75.7505C51.6864 75.6529 51.9569 75.5553 51.8586 75.3357C52.1291 75.2382 52.1291 75.2382 52.5718 75.6041C53.0391 75.97 53.0391 75.97 52.9407 75.7261C53.0145 75.1406 53.2851 75.043 53.7524 75.4089C53.7524 75.4089 53.8262 75.3845 53.9491 75.2382C54.0721 75.1406 54.2443 74.9454 54.4656 74.6526C54.5394 74.799 54.5394 74.7746 54.6624 74.4819C54.6624 74.4575 54.6378 74.4331 54.6378 74.4087C54.8591 74.1159 55.0313 73.8964 55.1789 73.7744C55.4494 73.8232 55.7446 73.9452 55.8675 74.1891C55.9659 74.4087 55.9905 74.4087 56.1873 73.75C56.2365 73.5792 56.3102 73.4328 56.3594 73.3352C56.4578 73.2865 56.5316 73.2377 56.5316 73.2377C56.507 73.2133 56.507 73.1645 56.4824 73.1401C56.63 72.9693 56.7775 72.8961 56.9989 72.7497C57.1711 72.7253 57.3432 72.6521 57.4908 72.5546C58.0811 72.9693 58.6713 72.8961 58.8681 72.1886C59.1141 72.0422 59.3354 71.8959 59.7289 71.9447C60.6389 72.2862 61.1308 71.9203 60.8357 71.5299C60.6881 71.3347 60.5406 71.1152 61.1554 70.9932C61.3768 70.8224 61.7703 70.8712 61.7703 70.8712C62.09 71.286 62.7049 71.1396 63.1722 70.7736C63.3936 70.6029 63.6395 70.4077 63.0738 70.2125C62.7541 69.8222 62.7541 69.8222 63.1968 69.4806C63.4182 69.3099 63.8363 68.9439 64.0084 69.1147C64.7709 69.1147 65.2136 68.7487 64.8693 68.3584C64.7217 68.212 64.6971 68.1876 65.0168 68.0656C65.066 68.1144 65.0906 68.1388 65.0906 68.1388C65.2382 68.2852 65.3858 68.1876 65.4349 67.9193C66.2712 67.7241 66.2958 67.6753 66.4925 66.7726L66.886 65.992L67.4517 66.5043C67.9928 67.407 68.8044 67.3094 68.4109 66.5775C68.0174 65.87 68.2142 65.6504 68.8044 65.748C68.8044 65.748 69.0012 65.5284 68.9766 65.1625C69.1488 64.577 69.7145 64.6502 69.7636 65.4065C69.8866 65.87 70.0342 66.1871 70.2063 66.2847C70.3785 66.3823 70.5753 66.2359 70.772 65.8212C71.141 65.3577 71.141 65.3577 70.7474 65.0405C70.1572 64.9673 69.9112 64.0403 70.6736 63.8939C70.8458 63.6499 71.0426 63.7963 70.8704 64.0403C70.7228 64.6502 71.1164 64.9673 71.4853 64.4794C72.0264 63.7475 71.5591 63.0888 70.6245 63.5035C69.9358 63.6499 69.8866 63.6499 69.6653 63.0156C69.985 62.6497 70.2555 62.3325 70.4769 62.0886C70.5261 62.113 70.5999 62.1373 70.6736 62.1373L71.3131 62.5521L70.8458 61.8934C70.8212 61.8446 70.7966 61.7958 70.772 61.747C71.3131 61.1371 71.5099 60.9663 71.8788 61.0151C72.1002 61.1371 72.2231 60.9419 71.6574 60.8931C71.4361 60.7712 71.2393 60.6248 71.4853 60.2344C71.5345 60.1369 71.6083 60.0393 71.6574 59.9661C71.7066 59.8929 71.7312 59.8441 71.7312 59.8441C71.8542 59.9173 72.0018 59.7953 72.1002 59.6489C72.1985 59.6733 72.2969 59.6245 72.3461 59.5025C72.4199 59.3806 72.9364 59.3562 73.4775 59.3806C74.0186 59.4294 74.5351 59.5269 74.5842 59.7221C74.5842 59.7221 74.5842 59.7221 74.7318 59.4538C75.0023 58.917 74.904 58.5511 74.6826 58.4535C74.6826 58.4535 74.6826 58.4535 74.9532 57.9412C75.3221 57.7948 75.4451 57.5264 75.1991 57.4045C75.4205 57.5021 75.568 57.2337 75.691 56.9653C75.691 56.9653 75.2237 56.7702 74.8794 56.3066C74.8548 56.209 74.781 56.1115 74.7072 56.0383C74.7318 56.0383 74.7318 56.0139 74.7564 56.0139C74.8548 55.7943 74.9532 55.5747 74.7072 55.4772C74.5596 55.16 74.5596 55.16 74.8794 55.038C74.9532 54.8185 75.3713 54.4525 75.2975 53.9158C75.3959 53.6962 75.5188 53.2327 75.7648 53.3303C75.7648 53.3303 75.8386 53.1107 75.9124 52.8668C75.9124 52.8668 75.937 52.6228 75.9616 52.2569C75.9616 52.2325 75.9616 52.1837 75.9861 52.1349C77.3389 51.9641 77.4864 51.403 76.4289 51.403C76.3551 51.3786 76.2321 51.3542 76.1091 51.3054C76.1337 51.1834 76.1583 51.0858 76.1829 50.9638C76.3305 50.4027 76.4289 49.988 76.5026 49.744C76.5026 49.7196 76.5272 49.6952 76.5272 49.6708C76.6748 49.6221 76.7732 49.5245 76.8716 49.4269C76.9945 49.4513 77.0191 49.4269 76.9453 49.3293C76.9699 49.3049 76.9699 49.2561 76.9945 49.2317C77.0683 48.9634 77.1175 48.695 76.6748 48.5974C76.6256 48.4266 76.6502 48.3047 76.7978 48.2071C77.0683 48.0119 77.0683 48.0119 77.1175 47.7923C77.1175 47.7923 77.1667 47.5484 77.2405 47.0848C77.4372 46.6213 77.4372 46.3773 77.1913 46.353ZM13.9332 11.9786C14.007 12.0274 14.0316 12.0518 13.9332 11.9786V11.9786Z" fill="#13335F"/>
</mask>
<g mask="url(#mask0_9385_8455)">
<rect x="-13" y="-7" width="105" height="90" fill="#13335F"/>
</g>
<path d="M34.5736 56H46.5016V54.866L44.9056 54.614L43.8976 53.816V25.214H43.1416L33.3136 30.632V31.766H37.9756V53.816L36.6316 54.614L34.5736 54.866V56Z" fill="white"/>
</svg>
