<svg width="19" height="19" viewBox="0 0 19 19" fill="none" xmlns="http://www.w3.org/2000/svg">
<path d="M18.3795 5.7341C18.3371 4.77286 18.1819 4.11201 17.9594 3.53937C17.7299 2.93153 17.3768 2.38734 16.9143 1.93495C16.4623 1.47551 15.9151 1.11851 15.3149 0.892387C14.7395 0.669711 14.0828 0.514266 13.1225 0.471884C12.155 0.425913 11.8479 0.415283 9.39408 0.415283C6.9403 0.415283 6.63317 0.425913 5.66928 0.468295C4.70898 0.510676 4.04879 0.666259 3.47686 0.888797C2.86948 1.11851 2.32582 1.47192 1.87388 1.93495C1.4149 2.38734 1.05839 2.93512 0.832345 3.53592C0.609889 4.11201 0.454598 4.76927 0.412258 5.73051C0.366332 6.69894 0.355713 7.00638 0.355713 9.46258C0.355713 11.9188 0.366332 12.2262 0.408672 13.1911C0.451012 14.1523 0.606441 14.8132 0.828898 15.3858C1.05839 15.9936 1.4149 16.5378 1.87388 16.9902C2.32582 17.4496 2.87307 17.8066 3.47327 18.0328C4.04879 18.2554 4.7054 18.4109 5.66584 18.4533C6.62958 18.4958 6.93686 18.5063 9.39063 18.5063C11.8444 18.5063 12.1515 18.4958 13.1154 18.4533C14.0757 18.4109 14.7359 18.2554 15.3079 18.0328C16.5225 17.5627 17.4828 16.6015 17.9524 15.3858C18.1747 14.8097 18.3301 14.1523 18.3725 13.1911C18.4148 12.2262 18.4254 11.9188 18.4254 9.46258C18.4254 7.00638 18.4218 6.69894 18.3795 5.7341ZM16.752 13.1204C16.7131 14.0039 16.5648 14.481 16.4412 14.7991C16.1375 15.5872 15.5127 16.2127 14.7253 16.5167C14.4075 16.6404 13.9275 16.7888 13.0483 16.8276C12.095 16.8701 11.8091 16.8806 9.39767 16.8806C6.98623 16.8806 6.69675 16.8701 5.74693 16.8276C4.86428 16.7888 4.38764 16.6404 4.06989 16.5167C3.67807 16.3717 3.32143 16.142 3.03194 15.8416C2.73184 15.5483 2.50235 15.1949 2.35754 14.8027C2.23397 14.4846 2.08571 14.0039 2.04696 13.124C2.00448 12.1698 1.994 11.8834 1.994 9.46962C1.994 7.0558 2.00448 6.76603 2.04696 5.81542C2.08571 4.93189 2.23397 4.45479 2.35754 4.13672C2.50235 3.74438 2.73184 3.38752 3.03553 3.09761C3.32846 2.79721 3.68152 2.56749 4.07347 2.42268C4.39123 2.29899 4.87145 2.15058 5.75052 2.11165C6.70378 2.06927 6.98982 2.05864 9.40111 2.05864C11.8161 2.05864 12.102 2.06927 13.0518 2.11165C13.9345 2.15058 14.4111 2.29899 14.7289 2.42268C15.1207 2.56749 15.4774 2.79721 15.7668 3.09761C16.0669 3.39097 16.2964 3.74438 16.4412 4.13672C16.5648 4.45479 16.7131 4.93534 16.752 5.81542C16.7943 6.76962 16.8049 7.0558 16.8049 9.46962C16.8049 11.8834 16.7943 12.1662 16.752 13.1204Z" fill="white"/>
<path d="M9.3944 4.81543C6.83126 4.81543 4.75165 6.89696 4.75165 9.46277C4.75165 12.0286 6.83126 14.1101 9.3944 14.1101C11.9577 14.1101 14.0372 12.0286 14.0372 9.46277C14.0372 6.89696 11.9577 4.81543 9.3944 4.81543ZM9.3944 12.4774C7.73157 12.4774 6.38276 11.1274 6.38276 9.46277C6.38276 7.79815 7.73157 6.44816 9.3944 6.44816C11.0574 6.44816 12.406 7.79815 12.406 9.46277C12.406 11.1274 11.0574 12.4774 9.3944 12.4774Z" fill="white"/>
<path d="M15.3048 4.63133C15.3048 5.23047 14.8195 5.71627 14.2208 5.71627C13.6223 5.71627 13.137 5.23047 13.137 4.63133C13.137 4.03205 13.6223 3.54639 14.2208 3.54639C14.8195 3.54639 15.3048 4.03205 15.3048 4.63133Z" fill="white"/>
</svg>
