<svg width="20" height="21" viewBox="0 0 20 21" fill="none" xmlns="http://www.w3.org/2000/svg">
<path d="M19.8894 20.046V20.0452H19.8942V13.0145C19.8942 9.57504 19.1545 6.92554 15.1374 6.92554C13.2063 6.92554 11.9104 7.9863 11.3814 8.99194H11.3255V7.24664H7.51678V20.0452H11.4827V13.7078C11.4827 12.0392 11.7987 10.4257 13.8631 10.4257C15.8971 10.4257 15.9274 12.33 15.9274 13.8149V20.046H19.8894Z" fill="white"/>
<path d="M1.0589 7.24707H5.02962V20.0457H1.0589V7.24707Z" fill="white"/>
<path d="M3.04268 0.875244C1.77311 0.875244 0.74292 1.90645 0.74292 3.17728C0.74292 4.44811 1.77311 5.50088 3.04268 5.50088C4.31226 5.50088 5.34245 4.44811 5.34245 3.17728C5.34165 1.90645 4.31147 0.875244 3.04268 0.875244V0.875244Z" fill="white"/>
</svg>
