<svg width="26" height="18" viewBox="0 0 26 18" fill="none" xmlns="http://www.w3.org/2000/svg">
<path d="M24.7799 3.60892C24.4998 2.56651 23.6788 1.74479 22.6375 1.4641C20.7353 0.943115 13.1264 0.943115 13.1264 0.943115C13.1264 0.943115 5.51773 0.943115 3.61553 1.44435C2.59432 1.72474 1.75324 2.56666 1.47312 3.60892C0.972534 5.51285 0.972534 9.46136 0.972534 9.46136C0.972534 9.46136 0.972534 13.4298 1.47312 15.3138C1.75353 16.3561 2.57429 17.1778 3.61568 17.4585C5.53776 17.9796 13.1267 17.9796 13.1267 17.9796C13.1267 17.9796 20.7353 17.9796 22.6375 17.4784C23.6789 17.1978 24.4998 16.3761 24.7802 15.3338C25.2807 13.4298 25.2807 9.4814 25.2807 9.4814C25.2807 9.4814 25.3007 5.51285 24.7799 3.60892ZM10.7039 13.1091V5.81359L17.0311 9.46136L10.7039 13.1091Z" fill="white"/>
</svg>
