<svg width="146" height="53" viewBox="0 0 146 53" fill="none" xmlns="http://www.w3.org/2000/svg">
<path d="M52.9538 28.666V24.2559H24.2697V28.666H52.9538Z" fill="#27ADD9"/>
<path d="M16.3279 24.2561H0V28.6663H16.3279V24.2561Z" fill="#27ADD9"/>
<path d="M28.684 16.2837H24.271V0H28.684V16.2837Z" fill="#27ADD9"/>
<path d="M28.6841 36.6375H24.2711V52.9212H28.6841V36.6375Z" fill="#27ADD9"/>
<path d="M12.458 9.29565L9.33496 12.4167L17.7196 20.7959L20.8426 17.6749L12.458 9.29565Z" fill="#27ADD9"/>
<path d="M35.3026 32.093L32.1796 35.214L40.5642 43.5934L43.6872 40.4723L35.3026 32.093Z" fill="#27ADD9"/>
<path d="M9.33368 40.5053L12.4567 43.6264L20.8413 35.247L17.7183 32.126L9.33368 40.5053Z" fill="#27ADD9"/>
<path d="M32.1779 17.6737L35.3009 20.7947L43.6855 12.4154L40.5625 9.29443L32.1779 17.6737Z" fill="#27ADD9"/>
<path d="M74.4098 17.335V19.3366C72.9841 17.6403 70.9813 16.7583 68.7409 16.7244C63.3774 16.6904 59.8131 20.3203 59.7792 26.1892C59.8131 32.126 63.6151 35.6202 68.7409 35.5523C71.0492 35.5523 73.018 34.6364 74.4098 32.9402V35.0435C74.4098 36.6379 74.0364 37.8932 73.3914 38.843C72.5088 40.2339 70.9813 41.0142 69.0464 41.082C67.4849 41.116 65.9573 40.641 64.8031 39.5893C64.1242 39.0126 63.615 38.2324 63.3774 37.3504L60.0507 38.5716C60.526 40.0304 61.3067 41.2177 62.2912 42.1676C64.0224 43.8299 66.4325 44.7119 69.1822 44.7119C72.1354 44.7119 74.6474 43.4567 76.2429 41.3874C77.5328 39.7251 78.2796 37.5539 78.2796 35.0435V17.3689H74.4098V17.335ZM69.1143 32.1599C65.8555 32.1599 63.5132 29.8531 63.5132 26.1892C63.5132 22.5933 65.8555 20.1847 69.1143 20.1847C71.762 20.1847 74.3419 22.1523 74.3758 25.9857V26.0196V26.0535V26.0875C74.3419 29.887 71.9996 32.1599 69.1143 32.1599Z" fill="#D6F3F9"/>
<path d="M96.9848 17.3684V25.9852C96.9848 30.565 94.948 32.6683 91.859 32.6683C89.2112 32.6683 87.1065 30.9382 87.1065 26.8672V17.3684H83.3725V27.0369C83.3725 33.9914 86.9368 36.0607 91.5195 36.0607C94.0994 36.0607 95.8646 35.043 97.0187 33.3807V35.5858H100.753V17.3684H96.9848Z" fill="#D6F3F9"/>
<path d="M116.333 16.7241C113.957 16.7241 111.717 17.674 110.155 19.5059V17.3687H106.15V44.1689H110.155V33.5506C111.683 35.2808 113.821 36.2306 116.198 36.2306C120.611 36.1628 124.48 32.9061 124.82 26.9354H124.854C125.091 20.6594 121.052 16.8259 116.333 16.7241ZM115.519 32.8721C112.905 32.9061 110.325 30.9384 110.155 27.2407V26.2569C110.257 22.4234 112.701 20.1166 115.688 20.1166C118.71 20.1166 121.256 22.627 121.188 26.6979C120.95 30.9045 118.234 32.8382 115.519 32.8721Z" fill="#D6F3F9"/>
<path d="M141.283 17.3684L135.886 30.8703L129.878 17.3684H125.838L134.053 35.4841L130.624 44.1009H134.63L145.357 17.3684H141.283Z" fill="#D6F3F9"/>
</svg>
