<svg width="126" height="46" viewBox="0 0 126 46" fill="none" xmlns="http://www.w3.org/2000/svg">
<path d="M46 25V21H21V25H46Z" fill="#27ADD9"/>
<path d="M14 21H0V25H14V21Z" fill="#27ADD9"/>
<path d="M25 14H21V0H25V14Z" fill="#27ADD9"/>
<path d="M25 32H21V46H25V32Z" fill="#27ADD9"/>
<path d="M10.7139 8L8 10.7139L15.2861 18L18 15.2861L10.7139 8Z" fill="#27ADD9"/>
<path d="M30.7139 28L28 30.7138L35.2861 38L38 35.2861L30.7139 28Z" fill="#27ADD9"/>
<path d="M8 35.2862L10.7139 38L18 30.7139L15.2861 28L8 35.2862Z" fill="#27ADD9"/>
<path d="M28 15.2861L30.7139 18L38 10.7139L35.2861 8L28 15.2861Z" fill="#27ADD9"/>
<path d="M64.6532 15.5238V17.2402C63.4202 15.7857 61.6881 15.0293 59.7505 15.0002C55.1119 14.9711 52.0294 18.0838 52 23.1165C52.0294 28.2074 55.3174 31.2037 59.7505 31.1455C61.7468 31.1455 63.4495 30.3601 64.6532 28.9056V30.7092C64.6532 32.0764 64.3303 33.1528 63.7725 33.9673C63.0092 35.1601 61.6881 35.8291 60.0147 35.8873C58.6642 35.9164 57.3431 35.5091 56.345 34.6073C55.7578 34.1128 55.3174 33.4437 55.1119 32.6873L52.2349 33.7346C52.6459 34.9855 53.3211 36.0037 54.1725 36.8182C55.6697 38.2436 57.7541 39 60.1321 39C62.6862 39 64.8587 37.9237 66.2385 36.1491C67.3541 34.7237 68 32.8619 68 30.7092V15.5529H64.6532V15.5238ZM60.0734 28.2365C57.255 28.2365 55.2294 26.2583 55.2294 23.1165C55.2294 20.0329 57.255 17.9675 60.0734 17.9675C62.3633 17.9675 64.5945 19.6547 64.6239 22.942V22.9711V23.0001V23.0293C64.5945 26.2874 62.5688 28.2365 60.0734 28.2365Z" fill="#13335F"/>
<path d="M83.748 16V23.3757C83.748 27.2958 81.9902 29.0962 79.3242 29.0962C77.0391 29.0962 75.2227 27.6152 75.2227 24.1307V16H72V24.2759C72 30.2287 75.0762 32 79.0312 32C81.2578 32 82.7813 31.1289 83.7773 29.706V31.5935H87V16H83.748Z" fill="#13335F"/>
<path d="M100.707 15C98.6752 15 96.7597 15.8307 95.4247 17.4327V15.5637H92V39H95.4247V29.7145C96.7307 31.2275 98.5591 32.0581 100.591 32.0581C104.364 31.9988 107.672 29.1508 107.962 23.9296H107.991C108.195 18.4413 104.741 15.089 100.707 15ZM100.01 29.1212C97.7755 29.1508 95.5698 27.4302 95.4247 24.1965V23.3362C95.5117 19.984 97.6014 17.9666 100.155 17.9666C102.738 17.9666 104.915 20.1619 104.857 23.7219C104.654 27.4005 102.332 29.0915 100.01 29.1212Z" fill="#13335F"/>
<path d="M122.452 16L117.751 27.6168L112.518 16H109L116.155 31.5863L113.169 39H116.657L126 16H122.452Z" fill="#13335F"/>
</svg>
